<svg
  xmlns="http://www.w3.org/2000/svg"
  viewBox="0 0 17.2001 19.2009"
  fill="none"
  role="img"
  aria-label="Stridia"
>
  <path
    d="M11.0186 18.7484C11.1001 19.0696 11.4266 19.2639 11.7478 19.1824C12.069 19.1008 12.2632 18.7743 12.1817 18.4532L11.6001 18.6008L11.0186 18.7484ZM10.936 15.9848L11.5176 15.8372L11.5176 15.8371L10.936 15.9848ZM9.62084 13.6974L9.19983 14.1249L9.19985 14.1249L9.62084 13.6974ZM2.06513 8.48179C1.91513 8.77726 2.03305 9.1384 2.32853 9.2884C2.624 9.43841 2.98513 9.32048 3.13514 9.02501L2.60014 8.7534L2.06513 8.48179ZM9.46994 5.59805L9.46983 6.19805H9.46984L9.46994 5.59805ZM10.4283 5.69214L10.1744 6.23573L10.1744 6.23574L10.4283 5.69214ZM11.2483 6.52548L11.7085 6.14041L11.7084 6.14036L11.2483 6.52548ZM7.33104 7.55956L6.82753 7.23324L6.82752 7.23326L7.33104 7.55956ZM6.27083 9.7397L6.87065 9.75414V9.75413L6.27083 9.7397ZM6.39327 10.4784L5.83016 10.6855L5.83017 10.6856L6.39327 10.4784ZM17.0487 6.19765C17.2688 5.94993 17.2464 5.57069 16.9987 5.3506C16.7509 5.1305 16.3717 5.15289 16.1516 5.40061L16.6001 5.79913L17.0487 6.19765ZM0.73896 14.7466C0.416581 14.6699 0.0930877 14.8691 0.0164174 15.1915C-0.060253 15.5139 0.138933 15.8373 0.461313 15.914L0.600136 15.3303L0.73896 14.7466ZM1.27836 15.4916L1.41722 14.9079L1.41718 14.9079L1.27836 15.4916ZM6.13128 13.8791C6.28541 13.5857 6.17256 13.223 5.87922 13.0689C5.58587 12.9147 5.22312 13.0276 5.06899 13.3209L5.60014 13.6L6.13128 13.8791ZM13.6001 2.1H13.0001C13.0001 2.59705 12.5972 3 12.1001 3V3.6V4.2C13.2599 4.2 14.2001 3.25981 14.2001 2.1H13.6001ZM12.1001 3.6V3C11.6031 3 11.2001 2.59705 11.2001 2.1H10.6001H10.0001C10.0001 3.25981 10.9404 4.2 12.1001 4.2V3.6ZM10.6001 2.1H11.2001C11.2001 1.60295 11.6031 1.2 12.1001 1.2V0.6V0C10.9404 0 10.0001 0.940191 10.0001 2.1H10.6001ZM12.1001 0.6V1.2C12.5972 1.2 13.0001 1.60295 13.0001 2.1H13.6001H14.2001C14.2001 0.940191 13.2599 0 12.1001 0V0.6ZM11.6001 18.6008L12.1817 18.4532L11.5176 15.8372L10.936 15.9848L10.3545 16.1324L11.0186 18.7484L11.6001 18.6008ZM10.936 15.9848L11.5176 15.8371C11.2706 14.8645 10.7601 13.9772 10.0418 13.2699L9.62084 13.6974L9.19985 14.1249C9.76314 14.6796 10.1618 15.3737 10.3545 16.1325L10.936 15.9848ZM9.62084 13.6974L10.0418 13.2699L8.52114 11.7723L8.10014 12.1998L7.67913 12.6273L9.19983 14.1249L9.62084 13.6974ZM2.60014 8.7534L3.13514 9.02501C3.59773 8.11384 4.16017 7.43883 4.97372 6.97544C5.79724 6.50637 6.93605 6.22108 8.60723 6.20132L8.60014 5.60136L8.59304 5.0014C6.80189 5.02258 5.4407 5.32844 4.3798 5.93272C3.30894 6.54268 2.60255 7.42322 2.06513 8.48179L2.60014 8.7534ZM8.60014 5.60136L8.60725 6.20132C8.8219 6.19877 9.14452 6.19799 9.46983 6.19805L9.46994 5.59805L9.47005 4.99805C9.14456 4.99799 8.81558 4.99877 8.59303 5.0014L8.60014 5.60136ZM9.46994 5.59805L9.46984 6.19805C9.73158 6.19809 9.89377 6.19854 10.0166 6.20808C10.1319 6.21705 10.1653 6.23149 10.1744 6.23573L10.4283 5.69214L10.6823 5.14855C10.4903 5.05883 10.2969 5.02626 10.1096 5.0117C9.92965 4.99771 9.71319 4.99809 9.47003 4.99805L9.46994 5.59805ZM10.4283 5.69214L10.1744 6.23574C10.1701 6.23374 10.209 6.25137 10.3241 6.37255C10.4363 6.49053 10.5768 6.65797 10.7882 6.9106L11.2483 6.52548L11.7084 6.14036C11.5073 5.90007 11.3384 5.69782 11.1939 5.54585C11.0525 5.39707 10.8877 5.24449 10.6823 5.14854L10.4283 5.69214ZM11.2483 6.52548L10.7882 6.91055C10.9171 7.06454 11.0732 7.23216 11.2401 7.35739L11.6001 6.87743L11.9602 6.39747C11.9027 6.35436 11.816 6.2689 11.7085 6.14041L11.2483 6.52548ZM8.60014 5.60136L8.09663 5.27504L6.82753 7.23324L7.33104 7.55956L7.83454 7.88588L9.10364 5.92768L8.60014 5.60136ZM7.33104 7.55956L6.82752 7.23326C6.48509 7.76167 6.20435 8.19365 6.01171 8.5653C5.81434 8.94605 5.68087 9.31512 5.671 9.72527L6.27083 9.7397L6.87065 9.75413C6.87438 9.59908 6.92217 9.4164 7.07708 9.11754C7.23672 8.80958 7.47928 8.43409 7.83455 7.88586L7.33104 7.55956ZM6.27083 9.7397L5.671 9.72526C5.66312 10.0525 5.71713 10.3783 5.83016 10.6855L6.39327 10.4784L6.95638 10.2713C6.89548 10.1057 6.86641 9.93029 6.87065 9.75414L6.27083 9.7397ZM6.39327 10.4784L5.83017 10.6856C5.97182 11.0706 6.21721 11.3769 6.52687 11.6736C6.82912 11.9632 7.23422 12.2815 7.72885 12.6711L8.10014 12.1998L8.47142 11.7285C7.95825 11.3242 7.60752 11.0471 7.35709 10.8071C7.11407 10.5743 7.00992 10.4168 6.95637 10.2712L6.39327 10.4784ZM11.6001 6.87743L11.2402 7.35746C11.9048 7.85582 12.7934 8.23084 13.8331 8.11943C14.8738 8.00791 15.9625 7.42009 17.0487 6.19765L16.6001 5.79913L16.1516 5.40061C15.2004 6.47114 14.3665 6.8554 13.7052 6.92626C13.0429 6.99723 12.4502 6.76491 11.9601 6.3974L11.6001 6.87743ZM11.6001 6.87743L11.0988 6.54776L7.59882 11.8701L8.10014 12.1998L8.60145 12.5295L12.1015 7.2071L11.6001 6.87743ZM0.600136 15.3303L0.461313 15.914L1.13953 16.0753L1.27836 15.4916L1.41718 14.9079L0.73896 14.7466L0.600136 15.3303ZM1.27836 15.4916L1.13949 16.0753C3.12053 16.5466 5.2004 15.6507 6.13128 13.8791L5.60014 13.6L5.06899 13.3209C4.40635 14.5821 2.893 15.259 1.41722 14.9079L1.27836 15.4916Z"
    fill="#616983"
  />
</svg>
