<svg preserveAspectRatio="none" width="100%" height="100%" overflow="visible" style="display: block;" viewBox="0 0 146.667 126.667" fill="none" xmlns="http://www.w3.org/2000/svg">
<g id="ai-icon">
<path fill-rule="evenodd" clip-rule="evenodd" d="M33.3333 113.333H113.333V33.3333H33.3333V113.333ZM60.4167 70.4167C58.4722 72.3611 56.1111 73.3333 53.3333 73.3333C50.5556 73.3333 48.1944 72.3611 46.25 70.4167C44.3056 68.4722 43.3333 66.1111 43.3333 63.3333C43.3333 60.5556 44.3056 58.1944 46.25 56.25C48.1944 54.3056 50.5556 53.3333 53.3333 53.3333C56.1111 53.3333 58.4722 54.3056 60.4167 56.25C62.3611 58.1944 63.3333 60.5556 63.3333 63.3333C63.3333 66.1111 62.3611 68.4722 60.4167 70.4167ZM100.417 70.4167C98.4722 72.3611 96.1111 73.3333 93.3333 73.3333C90.5556 73.3333 88.1944 72.3611 86.25 70.4167C84.3056 68.4722 83.3333 66.1111 83.3333 63.3333C83.3333 60.5556 84.3056 58.1944 86.25 56.25C88.1944 54.3056 90.5556 53.3333 93.3333 53.3333C96.1111 53.3333 98.4722 54.3056 100.417 56.25C102.361 58.1944 103.333 60.5556 103.333 63.3333C103.333 66.1111 102.361 68.4722 100.417 70.4167ZM100 100H46.6667V86.6667H100V100Z" fill="var(--fill-0, #F2F1FF)" fill-opacity="0.1"/>
<path fill-rule="evenodd" clip-rule="evenodd" d="M5.83333 80.8333C9.72222 84.7222 14.4444 86.6667 20 86.6667V113.333C20 117 21.3056 120.139 23.9167 122.75C26.5278 125.361 29.6667 126.667 33.3333 126.667H113.333C117 126.667 120.139 125.361 122.75 122.75C125.361 120.139 126.667 117 126.667 113.333V86.6667C132.222 86.6667 136.944 84.7222 140.833 80.8333C144.722 76.9444 146.667 72.2222 146.667 66.6667C146.667 61.1111 144.722 56.3889 140.833 52.5C136.944 48.6111 132.222 46.6667 126.667 46.6667V33.3333C126.667 29.6667 125.361 26.5278 122.75 23.9167C120.139 21.3056 117 20 113.333 20H93.3333C93.3333 14.4444 91.3889 9.72222 87.5 5.83333C83.6111 1.94444 78.8889 0 73.3333 0C67.7778 0 63.0556 1.94444 59.1667 5.83333C55.2778 9.72222 53.3333 14.4444 53.3333 20H33.3333C29.6667 20 26.5278 21.3056 23.9167 23.9167C21.3056 26.5278 20 29.6667 20 33.3333V46.6667C14.4444 46.6667 9.72222 48.6111 5.83333 52.5C1.94444 56.3889 0 61.1111 0 66.6667C0 72.2222 1.94444 76.9444 5.83333 80.8333ZM113.333 33.3333V113.333H33.3333V33.3333H113.333Z" fill="var(--fill-0, #F2F1FF)" fill-opacity="0.1"/>
</g>
</svg>
