<svg preserveAspectRatio="none" width="100%" height="100%" overflow="visible" style="display: block;" viewBox="0 0 9.00002 9.20512" fill="none" xmlns="http://www.w3.org/2000/svg">
<g id="Vector">
<path d="M8.29692 2.60609L8.09441 2.25466C7.94127 1.98889 7.86471 1.856 7.73441 1.80301C7.60412 1.75002 7.45675 1.79183 7.16207 1.87546L6.66147 2.01646C6.47333 2.05985 6.27592 2.03524 6.10414 1.94697L5.96593 1.86723C5.8186 1.77287 5.70529 1.63376 5.64256 1.47023L5.50558 1.06105C5.41549 0.790276 5.37044 0.654887 5.2632 0.577447C5.156 0.500007 5.01356 0.500008 4.72868 0.500008H4.27133C3.98648 0.500008 3.84404 0.500007 3.7368 0.577447C3.62958 0.654887 3.58454 0.790276 3.49446 1.06105L3.35745 1.47023C3.29473 1.63376 3.18142 1.77287 3.03411 1.86723L2.8959 1.94697C2.7241 2.03524 2.52671 2.05985 2.33856 2.01646L1.83796 1.87546C1.54325 1.79183 1.39591 1.75002 1.26562 1.80301C1.13533 1.856 1.05876 1.98889 0.90561 2.25466L0.703116 2.60609C0.559563 2.85521 0.487785 2.97978 0.501717 3.11238C0.515645 3.24499 0.611735 3.35184 0.803911 3.56556L1.2269 4.03846C1.33029 4.16933 1.40368 4.39743 1.40368 4.60252C1.40368 4.80769 1.33031 5.03571 1.22691 5.16662L0.803911 5.63952C0.611735 5.85326 0.515649 5.96009 0.501717 6.09273C0.487785 6.22532 0.559563 6.34988 0.703116 6.59898L0.905605 6.95041C1.05875 7.21617 1.13533 7.3491 1.26562 7.40206C1.39591 7.45506 1.54326 7.41326 1.83796 7.32961L2.33855 7.1886C2.52673 7.1452 2.72416 7.16985 2.89597 7.25814L3.03416 7.33789C3.18144 7.43225 3.29473 7.57133 3.35744 7.73486L3.49446 8.14409C3.58454 8.41486 3.62958 8.55024 3.7368 8.6277C3.84404 8.70511 3.98648 8.70511 4.27133 8.70511H4.72868C5.01356 8.70511 5.156 8.70511 5.2632 8.6277C5.37044 8.55024 5.41549 8.41486 5.50558 8.14409L5.6426 7.73486C5.70529 7.57133 5.81856 7.43225 5.96589 7.33789L6.10406 7.25814C6.27587 7.16985 6.47329 7.1452 6.66147 7.1886L7.16207 7.32961C7.45675 7.41326 7.60412 7.45506 7.73441 7.40206C7.86471 7.3491 7.94127 7.21617 8.09441 6.95041L8.29692 6.59898C8.44046 6.34988 8.51222 6.22532 8.49831 6.09273C8.48436 5.96009 8.38828 5.85326 8.19612 5.63952L7.7731 5.16662C7.66972 5.03571 7.59632 4.80769 7.59632 4.60252C7.59632 4.39743 7.66976 4.16933 7.7731 4.03846L8.19612 3.56556C8.38828 3.35184 8.48436 3.24499 8.49831 3.11238C8.51222 2.97978 8.44046 2.85521 8.29692 2.60609Z" stroke="var(--stroke-0, #ECEFF3)"/>
<path d="M5.91826 4.59936C5.91826 5.39238 5.27539 6.03525 4.48236 6.03525C3.68934 6.03525 3.04648 5.39238 3.04648 4.59936C3.04648 3.80633 3.68934 3.16346 4.48236 3.16346C5.27539 3.16346 5.91826 3.80633 5.91826 4.59936Z" stroke="var(--stroke-0, #ECEFF3)"/>
</g>
</svg>
