<svg preserveAspectRatio="none" width="100%" height="100%" overflow="visible" style="display: block;" viewBox="0 0 21.2 21.2" fill="none" xmlns="http://www.w3.org/2000/svg">
<path id="Vector" d="M17.5905 17.6L17.168 17.1739L17.168 17.174L17.5905 17.6ZM12.9154 18.947L12.4911 18.5227L12.4911 18.5228L12.9154 18.947ZM8.28457 18.947L8.70886 18.5228L8.70884 18.5227L8.28457 18.947ZM3.60949 17.6L4.03197 17.174L4.03196 17.1739L3.60949 17.6ZM2.19938 12.8618L2.62365 12.4375L2.62364 12.4375L2.19938 12.8618ZM0.6 10.6L0 10.6V10.6L0.6 10.6ZM3.6 3.60944L3.17396 3.18695L3.17396 3.18696L3.6 3.60944ZM12.8618 2.19937L12.4375 2.62362L12.4375 2.62363L12.8618 2.19937ZM17.5906 3.6L18.0131 3.17398L18.0131 3.17397L17.5906 3.6ZM19.0006 8.33817L18.5763 8.7624L18.5764 8.76245L19.0006 8.33817ZM19.0006 12.8618L18.5764 12.4375L18.5763 12.4375L19.0006 12.8618ZM7.88638 10.9657C7.59519 10.8075 7.23092 10.9153 7.07276 11.2065C6.91459 11.4977 7.02243 11.862 7.31362 12.0201L7.6 11.4929L7.88638 10.9657ZM9.4 13.1L8.8919 13.4191C9.00813 13.6042 9.21579 13.7114 9.43397 13.699C9.65215 13.6867 9.84635 13.5566 9.94091 13.3596L9.4 13.1ZM13.8772 8.63215C14.1711 8.47908 14.2852 8.11674 14.1321 7.82284C13.9791 7.52894 13.6167 7.41478 13.3228 7.56785L13.6 8.1L13.8772 8.63215ZM17.5905 17.6V18.2H17.6V17.6V17H17.5905V17.6ZM17.5905 17.6L17.168 17.174C17.0062 17.3345 16.7407 17.431 16.332 17.4655C15.9025 17.5018 15.5151 17.4637 15.0479 17.4637V18.0637V18.6637C15.3721 18.6637 15.9446 18.7025 16.4329 18.6613C16.942 18.6183 17.5521 18.483 18.013 18.026L17.5905 17.6ZM15.0479 18.0637V17.4637C14.5266 17.4637 14.0774 17.5137 13.6484 17.6907C13.2194 17.8678 12.8638 18.1501 12.4911 18.5227L12.9154 18.947L13.3397 19.3713C13.6603 19.0506 13.8853 18.8912 14.1063 18.8C14.3275 18.7087 14.5978 18.6637 15.0479 18.6637V18.0637ZM12.9154 18.947L12.4911 18.5228C12.1346 18.8793 11.8681 19.2141 11.4916 19.5431C11.1316 19.8578 10.8416 20 10.6 20V20.6V21.2C11.2921 21.2 11.8646 20.8109 12.2813 20.4467C12.6816 20.0968 13.1059 19.6051 13.3397 19.3712L12.9154 18.947ZM10.6 20.6V20C10.3584 20 10.0684 19.8578 9.70839 19.5431C9.3319 19.2141 9.0654 18.8793 8.70886 18.5228L8.28457 18.947L7.86028 19.3712C8.09407 19.6051 8.51844 20.0968 8.91866 20.4467C9.33536 20.8109 9.90787 21.2 10.6 21.2V20.6ZM8.28457 18.947L8.70884 18.5227C8.33622 18.1501 7.9806 17.8678 7.55154 17.6907C7.12263 17.5137 6.67337 17.4637 6.15206 17.4637V18.0637V18.6637C6.60218 18.6637 6.87253 18.7087 7.0937 18.8C7.31471 18.8912 7.53963 19.0506 7.8603 19.3713L8.28457 18.947ZM6.15206 18.0637V17.4637C5.68483 17.4637 5.29747 17.5018 4.86799 17.4655C4.45924 17.431 4.19383 17.3345 4.03197 17.174L3.60949 17.6L3.18701 18.026C3.64784 18.483 4.25802 18.6183 4.76705 18.6613C5.25533 18.7025 5.82791 18.6637 6.15206 18.6637V18.0637ZM3.60949 17.6L4.03196 17.1739C3.86871 17.0121 3.77067 16.7468 3.73527 16.3375C3.69807 15.9074 3.73628 15.5174 3.73628 15.0479H3.13628H2.53628C2.53628 15.3749 2.49725 15.9498 2.53974 16.4409C2.58402 16.953 2.72259 17.5655 3.18702 18.0261L3.60949 17.6ZM3.13628 15.0479H3.73628C3.73628 14.5027 3.6773 14.043 3.48646 13.606C3.2975 13.1734 3.00181 12.8157 2.62365 12.4375L2.19938 12.8618L1.77511 13.2861C2.11373 13.6247 2.28649 13.8568 2.38679 14.0864C2.4852 14.3117 2.53628 14.5866 2.53628 15.0479H3.13628ZM2.19938 12.8618L2.62364 12.4375C2.07853 11.8924 1.71328 11.5254 1.47687 11.2155C1.25102 10.9195 1.2 10.7472 1.2 10.6L0.6 10.6L0 10.6C1.55568e-05 11.1152 0.215571 11.5407 0.522843 11.9434C0.819565 12.3323 1.25399 12.765 1.77512 13.2861L2.19938 12.8618ZM0.6 10.6L1.2 10.6C1.2 10.4527 1.25102 10.2804 1.47686 9.98443C1.71326 9.67459 2.0785 9.30754 2.62361 8.76243L2.19935 8.33817L1.77509 7.91391C1.25397 8.43503 0.819544 8.86764 0.522829 9.25654C0.215548 9.65928 7.7486e-06 10.0848 0 10.6L0.6 10.6ZM2.19935 8.33817L2.62361 8.76243C3.36359 8.02245 3.73628 7.24012 3.73628 6.15206H3.13628H2.53628C2.53628 6.88844 2.31481 7.37418 1.77509 7.91391L2.19935 8.33817ZM3.13628 6.15206H3.73628C3.73628 5.68482 3.69819 5.29745 3.73445 4.86796C3.76896 4.45921 3.86553 4.19378 4.02604 4.03192L3.6 3.60944L3.17396 3.18696C2.71696 3.6478 2.58168 4.25797 2.5387 4.76701C2.49748 5.2553 2.53628 5.82789 2.53628 6.15206H3.13628ZM3.6 3.60944L4.02604 4.03193C4.18793 3.86867 4.45318 3.77064 4.86247 3.73525C5.29261 3.69805 5.68262 3.73626 6.15208 3.73626V3.13626V2.53626C5.82506 2.53626 5.25024 2.49723 4.75908 2.53971C4.24705 2.58399 3.6345 2.72255 3.17396 3.18695L3.6 3.60944ZM6.15208 3.13626V3.73626C7.2401 3.73626 8.02245 3.3636 8.76241 2.62363L8.33815 2.19937L7.91389 1.77511C7.37419 2.3148 6.88844 2.53626 6.15208 2.53626V3.13626ZM8.33815 2.19937L8.76241 2.62363C9.30753 2.07851 9.67459 1.71326 9.98443 1.47685C10.2804 1.25102 10.4527 1.2 10.6 1.2V0.6V0C10.0848 0 9.65927 0.215544 9.25653 0.522829C8.86764 0.819548 8.43501 1.25398 7.91389 1.77511L8.33815 2.19937ZM10.6 0.6V1.2C10.7473 1.2 10.9196 1.25102 11.2156 1.47685C11.5254 1.71325 11.8924 2.0785 12.4375 2.62362L12.8618 2.19937L13.2861 1.77512C12.765 1.25399 12.3324 0.819554 11.9435 0.522833C11.5407 0.215544 11.1152 0 10.6 0V0.6ZM12.8618 2.19937L12.4375 2.62363C13.1773 3.36345 13.9596 3.73626 15.0479 3.73626V3.13626V2.53626C14.3114 2.53626 13.8257 2.31469 13.2861 1.77511L12.8618 2.19937ZM15.0479 3.13626V3.73626C15.5151 3.73626 15.9025 3.69817 16.332 3.73443C16.7408 3.76894 17.0063 3.86552 17.1681 4.02603L17.5906 3.6L18.0131 3.17397C17.5522 2.71695 16.942 2.58166 16.433 2.53868C15.9447 2.49746 15.3721 2.53626 15.0479 2.53626V3.13626ZM17.5906 3.6L17.1681 4.02602C17.3313 4.1879 17.4293 4.45315 17.4647 4.86244C17.5019 5.2926 17.4637 5.68258 17.4637 6.15206H18.0637H18.6637C18.6637 5.82507 18.7027 5.25023 18.6603 4.75909C18.616 4.24708 18.4775 3.63453 18.0131 3.17398L17.5906 3.6ZM18.0637 6.15206H17.4637C17.4637 6.69728 17.5227 7.15703 17.7136 7.59394C17.9025 8.02653 18.1982 8.38425 18.5763 8.7624L19.0006 8.33817L19.4249 7.91394C19.0863 7.57529 18.9135 7.34321 18.8132 7.11358C18.7148 6.88826 18.6637 6.61336 18.6637 6.15206H18.0637ZM19.0006 8.33817L18.5764 8.76245C19.1215 9.30755 19.4868 9.6746 19.7232 9.98444C19.949 10.2804 20 10.4527 20 10.6H20.6H21.2C21.2 10.0848 20.9845 9.65928 20.6772 9.25653C20.3804 8.86763 19.946 8.43502 19.4249 7.91389L19.0006 8.33817ZM20.6 10.6H20C20 10.7473 19.949 10.9195 19.7231 11.2155C19.4867 11.5254 19.1215 11.8924 18.5764 12.4375L19.0006 12.8618L19.4248 13.2861C19.946 12.765 20.3805 12.3323 20.6772 11.9434C20.9845 11.5407 21.2 11.1151 21.2 10.6H20.6ZM19.0006 12.8618L18.5763 12.4375C18.1982 12.8157 17.9025 13.1734 17.7135 13.6061C17.5227 14.043 17.4637 14.5027 17.4637 15.0479H18.0637H18.6637C18.6637 14.5866 18.7148 14.3117 18.8132 14.0864C18.9135 13.8568 19.0862 13.6247 19.4249 13.2861L19.0006 12.8618ZM18.0637 15.0479H17.4637C17.4637 15.5174 17.5019 15.9074 17.4647 16.3375C17.4293 16.7468 17.3313 17.0121 17.168 17.1739L17.5905 17.6L18.013 18.0261C18.4774 17.5655 18.616 16.953 18.6603 16.4409C18.7027 15.9498 18.6637 15.3749 18.6637 15.0479H18.0637ZM7.6 11.4929C7.31362 12.0201 7.31352 12.0201 7.31342 12.02C7.3134 12.02 7.31331 12.02 7.31326 12.0199C7.31315 12.0199 7.31307 12.0198 7.313 12.0198C7.31286 12.0197 7.3128 12.0197 7.31281 12.0197C7.31282 12.0197 7.31311 12.0199 7.31368 12.0202C7.31482 12.0208 7.31705 12.022 7.32032 12.0239C7.32686 12.0275 7.33755 12.0336 7.35196 12.0419C7.38081 12.0587 7.42439 12.0845 7.47929 12.1187C7.58945 12.1875 7.74327 12.2889 7.91409 12.4175C8.26424 12.6812 8.64819 13.0311 8.8919 13.4191L9.4 13.1L9.9081 12.7809C9.55181 12.2136 9.03576 11.76 8.63591 11.4589C8.43173 11.3052 8.24805 11.184 8.11446 11.1006C8.04749 11.0588 7.99263 11.0263 7.95351 11.0036C7.93393 10.9923 7.91826 10.9834 7.90693 10.977C7.90126 10.9739 7.89668 10.9713 7.89324 10.9694C7.89152 10.9685 7.89008 10.9677 7.88894 10.9671C7.88836 10.9667 7.88786 10.9665 7.88744 10.9662C7.88722 10.9661 7.88703 10.966 7.88685 10.9659C7.88677 10.9659 7.88665 10.9658 7.8866 10.9658C7.88649 10.9657 7.88638 10.9657 7.6 11.4929ZM9.4 13.1C9.94091 13.3596 9.94087 13.3597 9.94084 13.3598C9.94083 13.3598 9.9408 13.3599 9.9408 13.3599C9.94079 13.3599 9.9408 13.3599 9.94084 13.3598C9.94093 13.3596 9.94112 13.3592 9.94142 13.3586C9.94203 13.3573 9.94306 13.3552 9.94452 13.3522C9.94744 13.3462 9.95206 13.3368 9.95835 13.3241C9.97093 13.2987 9.99017 13.2604 10.0158 13.2105C10.067 13.1107 10.1436 12.9652 10.2432 12.786C10.4427 12.427 10.7329 11.9359 11.0948 11.4081C11.833 10.3317 12.8139 9.18591 13.8772 8.63215L13.6 8.1L13.3228 7.56785C11.9861 8.26409 10.867 9.61835 10.1052 10.7294C9.7171 11.2954 9.40729 11.8198 9.19431 12.2031C9.08766 12.3949 9.00487 12.5522 8.94829 12.6624C8.91998 12.7175 8.89821 12.7609 8.88325 12.791C8.87577 12.8061 8.86999 12.8179 8.86595 12.8262C8.86393 12.8303 8.86235 12.8336 8.8612 12.836C8.86063 12.8372 8.86017 12.8381 8.85981 12.8388C8.85964 12.8392 8.85949 12.8395 8.85937 12.8398C8.85931 12.8399 8.85924 12.84 8.85921 12.8401C8.85914 12.8402 8.85909 12.8404 9.4 13.1Z" fill="var(--stroke-0, #F9FAFB)"/>
</svg>
