<svg preserveAspectRatio="none" width="100%" height="100%" overflow="visible" style="display: block;" viewBox="0 0 22 22.0011" fill="none" xmlns="http://www.w3.org/2000/svg">
<path id="Vector" d="M4.17571 14.4065C4.4002 14.9111 4.99124 15.1381 5.49585 14.9137C6.00045 14.6892 6.22753 14.0981 6.00305 13.5935L5.08938 14L4.17571 14.4065ZM15.9969 13.5935C15.7725 14.0981 15.9995 14.6892 16.5041 14.9137C17.0087 15.1381 17.5998 14.9111 17.8243 14.4064L16.9106 14L15.9969 13.5935ZM12 1C12 0.447715 11.5523 0 11 0C10.4477 0 10 0.447715 10 1H11H12ZM10 2C10 2.55228 10.4477 3 11 3C11.5523 3 12 2.55228 12 2H11H10ZM21 12C21.5523 12 22 11.5523 22 11C22 10.4477 21.5523 9.99999 21 9.99999V11V12ZM20 9.99999C19.4477 9.99999 19 10.4477 19 11C19 11.5523 19.4477 12 20 12V11V9.99999ZM2 12C2.55228 12 3 11.5523 3 11C3 10.4477 2.55228 9.99999 2 9.99999V11V12ZM1 9.99999C0.447715 9.99999 0 10.4477 0 11C0 11.5523 0.447715 12 1 12V11V9.99999ZM18.7775 4.63581C19.168 4.24528 19.168 3.61212 18.7775 3.2216C18.387 2.83108 17.7538 2.83108 17.3633 3.22161L18.0704 3.92871L18.7775 4.63581ZM16.6562 3.92872C16.2657 4.31925 16.2657 4.95241 16.6562 5.34293C17.0467 5.73345 17.6799 5.73345 18.0704 5.34292L17.3633 4.63582L16.6562 3.92872ZM3.92969 5.3439C4.32022 5.73442 4.95338 5.73442 5.34391 5.3439C5.73443 4.95337 5.73443 4.32021 5.34391 3.92968L4.6368 4.63679L3.92969 5.3439ZM4.6368 3.22257C4.24627 2.83205 3.61311 2.83205 3.22258 3.22257C2.83206 3.6131 2.83206 4.24626 3.22258 4.63679L3.92969 3.92968L4.6368 3.22257ZM15.0466 16.1246L16.0392 16.2462L16.0392 16.246L15.0466 16.1246ZM14.572 15.6162V14.6162H14.572L14.572 15.6162ZM7.47685 15.6164V16.6164H7.47688L7.47685 15.6164ZM6.98925 16.1497L7.9821 16.0303L7.98209 16.0303L6.98925 16.1497ZM11.0068 21.0001L11.0186 20.0002C11.0085 20 10.9984 20.0001 10.9883 20.0003L11.0068 21.0001ZM5.08938 14L6.00305 13.5935C5.68072 12.869 5.5 12.061 5.5 11.2059H4.5H3.5C3.5 12.3452 3.74122 13.4298 4.17571 14.4065L5.08938 14ZM4.5 11.2059H5.5C5.5 8.02499 7.9916 5.5 11 5.5V4.5V3.5C6.8287 3.5 3.5 6.97967 3.5 11.2059H4.5ZM11 4.5V5.5C14.0084 5.5 16.5 8.02499 16.5 11.2059H17.5H18.5C18.5 6.97967 15.1714 3.5 11 3.5V4.5ZM17.5 11.2059H16.5C16.5 12.061 16.3193 12.869 15.9969 13.5935L16.9106 14L17.8243 14.4064C18.2587 13.4298 18.5 12.3452 18.5 11.2059H17.5ZM11 1H10V2H11H12V1H11ZM21 11V9.99999H20V11V12H21V11ZM2 11V9.99999H1V11V12H2V11ZM18.0704 3.92871L17.3633 3.22161L16.6562 3.92872L17.3633 4.63582L18.0704 5.34292L18.7775 4.63581L18.0704 3.92871ZM4.6368 4.63679L5.34391 3.92968L4.6368 3.22257L3.92969 3.92968L3.22258 4.63679L3.92969 5.3439L4.6368 4.63679ZM13.517 18.3064L13.8247 19.2579C15.3841 18.7535 15.906 17.3329 16.0392 16.2462L15.0466 16.1246L14.054 16.0029C13.9592 16.7766 13.6707 17.2057 13.2093 17.3549L13.517 18.3064ZM15.0466 16.1246L16.0392 16.246C16.1548 15.3012 15.3786 14.6162 14.572 14.6162V15.6162V16.6162C14.3254 16.6162 14.0064 16.3922 14.054 16.0031L15.0466 16.1246ZM14.572 15.6162L14.572 14.6162L7.47682 14.6164L7.47685 15.6164L7.47688 16.6164L14.572 16.6162L14.572 15.6162ZM7.47685 15.6164V14.6164C6.62933 14.6164 5.88533 15.3456 5.99641 16.2691L6.98925 16.1497L7.98209 16.0303C8.02401 16.3788 7.74517 16.6164 7.47685 16.6164V15.6164ZM6.98925 16.1497L5.9964 16.2691C6.05976 16.7959 6.18257 17.3623 6.51022 17.8943C6.84536 18.4385 7.33886 18.858 7.99648 19.1959L8.45345 18.3064L8.91042 17.4169C8.49729 17.2047 8.31452 17.0101 8.21315 16.8455C8.1043 16.6688 8.03039 16.4319 7.9821 16.0303L6.98925 16.1497ZM13.517 18.3064C13.517 17.3064 13.517 17.3064 13.5169 17.3064C13.5169 17.3064 13.5169 17.3064 13.5168 17.3064C13.5167 17.3064 13.5166 17.3064 13.5165 17.3064C13.5164 17.3064 13.5163 17.3064 13.5161 17.3064C13.516 17.3064 13.5158 17.3064 13.5156 17.3064C13.5154 17.3064 13.5152 17.3064 13.515 17.3064C13.5148 17.3064 13.5145 17.3064 13.5143 17.3064C13.514 17.3064 13.5138 17.3064 13.5135 17.3064C13.5132 17.3064 13.5129 17.3064 13.5125 17.3064C13.5122 17.3064 13.5118 17.3064 13.5115 17.3064C13.5111 17.3064 13.5107 17.3064 13.5103 17.3064C13.5099 17.3064 13.5095 17.3064 13.5091 17.3064C13.5086 17.3064 13.5082 17.3064 13.5077 17.3064C13.5072 17.3064 13.5067 17.3064 13.5062 17.3064C13.5057 17.3064 13.5052 17.3064 13.5047 17.3064C13.5041 17.3064 13.5036 17.3064 13.503 17.3064C13.5024 17.3064 13.5018 17.3064 13.5012 17.3064C13.5006 17.3064 13.4999 17.3064 13.4993 17.3064C13.4986 17.3064 13.498 17.3064 13.4973 17.3064C13.4966 17.3064 13.4959 17.3064 13.4952 17.3064C13.4945 17.3064 13.4937 17.3064 13.493 17.3064C13.4922 17.3064 13.4915 17.3064 13.4907 17.3064C13.4899 17.3064 13.4891 17.3064 13.4883 17.3064C13.4875 17.3064 13.4866 17.3064 13.4858 17.3064C13.4849 17.3064 13.484 17.3064 13.4832 17.3064C13.4823 17.3064 13.4814 17.3064 13.4804 17.3064C13.4795 17.3064 13.4786 17.3064 13.4776 17.3064C13.4767 17.3064 13.4757 17.3064 13.4747 17.3064C13.4737 17.3064 13.4727 17.3064 13.4717 17.3064C13.4707 17.3064 13.4696 17.3064 13.4686 17.3064C13.4675 17.3064 13.4665 17.3064 13.4654 17.3064C13.4643 17.3064 13.4632 17.3064 13.4621 17.3064C13.461 17.3064 13.4598 17.3064 13.4587 17.3064C13.4575 17.3064 13.4563 17.3064 13.4552 17.3064C13.454 17.3064 13.4528 17.3064 13.4516 17.3064C13.4503 17.3064 13.4491 17.3064 13.4479 17.3064C13.4466 17.3064 13.4453 17.3064 13.4441 17.3064C13.4428 17.3064 13.4415 17.3064 13.4402 17.3064C13.4388 17.3064 13.4375 17.3064 13.4362 17.3064C13.4348 17.3064 13.4335 17.3064 13.4321 17.3064C13.4307 17.3064 13.4293 17.3064 13.4279 17.3064C13.4265 17.3064 13.4251 17.3064 13.4236 17.3064C13.4222 17.3064 13.4207 17.3064 13.4193 17.3064C13.4178 17.3064 13.4163 17.3064 13.4148 17.3064C13.4133 17.3064 13.4118 17.3064 13.4103 17.3064C13.4087 17.3064 13.4072 17.3064 13.4056 17.3064C13.404 17.3064 13.4025 17.3064 13.4009 17.3064C13.3993 17.3064 13.3977 17.3064 13.396 17.3064C13.3944 17.3064 13.3928 17.3064 13.3911 17.3064C13.3895 17.3064 13.3878 17.3064 13.3861 17.3064C13.3844 17.3064 13.3827 17.3064 13.381 17.3064C13.3793 17.3064 13.3776 17.3064 13.3758 17.3064C13.3741 17.3064 13.3723 17.3064 13.3705 17.3064C13.3688 17.3064 13.367 17.3064 13.3652 17.3064C13.3634 17.3064 13.3615 17.3064 13.3597 17.3064C13.3579 17.3064 13.356 17.3064 13.3542 17.3064C13.3523 17.3064 13.3504 17.3064 13.3485 17.3064C13.3466 17.3064 13.3447 17.3064 13.3428 17.3064C13.3409 17.3064 13.3389 17.3064 13.337 17.3064C13.335 17.3064 13.3331 17.3064 13.3311 17.3064C13.3291 17.3064 13.3271 17.3064 13.3251 17.3064C13.3231 17.3064 13.3211 17.3064 13.319 17.3064C13.317 17.3064 13.315 17.3064 13.3129 17.3064C13.3108 17.3064 13.3087 17.3064 13.3067 17.3064C13.3046 17.3064 13.3025 17.3064 13.3003 17.3064C13.2982 17.3064 13.2961 17.3064 13.2939 17.3064C13.2918 17.3064 13.2896 17.3064 13.2874 17.3064C13.2853 17.3064 13.2831 17.3064 13.2809 17.3064C13.2787 17.3064 13.2764 17.3064 13.2742 17.3064C13.272 17.3064 13.2697 17.3064 13.2675 17.3064C13.2652 17.3064 13.2629 17.3064 13.2606 17.3064C13.2584 17.3064 13.2561 17.3064 13.2537 17.3064C13.2514 17.3064 13.2491 17.3064 13.2468 17.3064C13.2444 17.3064 13.2421 17.3064 13.2397 17.3064C13.2373 17.3064 13.235 17.3064 13.2326 17.3064C13.2302 17.3064 13.2278 17.3064 13.2253 17.3064C13.2229 17.3064 13.2205 17.3064 13.218 17.3064C13.2156 17.3064 13.2131 17.3064 13.2107 17.3064C13.2082 17.3064 13.2057 17.3064 13.2032 17.3064C13.2007 17.3064 13.1982 17.3064 13.1957 17.3064C13.1931 17.3064 13.1906 17.3064 13.188 17.3064C13.1855 17.3064 13.1829 17.3064 13.1804 17.3064C13.1778 17.3064 13.1752 17.3064 13.1726 17.3064C13.17 17.3064 13.1674 17.3064 13.1647 17.3064C13.1621 17.3064 13.1595 17.3064 13.1568 17.3064C13.1542 17.3064 13.1515 17.3064 13.1488 17.3064C13.1461 17.3064 13.1435 17.3064 13.1408 17.3064C13.1381 17.3064 13.1353 17.3064 13.1326 17.3064C13.1299 17.3064 13.1271 17.3064 13.1244 17.3064C13.1216 17.3064 13.1189 17.3064 13.1161 17.3064C13.1133 17.3064 13.1105 17.3064 13.1077 17.3064C13.1049 17.3064 13.1021 17.3064 13.0993 17.3064C13.0965 17.3064 13.0936 17.3064 13.0908 17.3064C13.0879 17.3064 13.0851 17.3064 13.0822 17.3064C13.0793 17.3064 13.0764 17.3064 13.0735 17.3064C13.0706 17.3064 13.0677 17.3064 13.0648 17.3064C13.0619 17.3064 13.059 17.3064 13.056 17.3064C13.0531 17.3064 13.0501 17.3064 13.0472 17.3064C13.0442 17.3064 13.0412 17.3064 13.0382 17.3064C13.0352 17.3064 13.0322 17.3064 13.0292 17.3064C13.0262 17.3064 13.0232 17.3064 13.0201 17.3064C13.0171 17.3064 13.014 17.3064 13.011 17.3064C13.0079 17.3064 13.0049 17.3064 13.0018 17.3064C12.9987 17.3064 12.9956 17.3064 12.9925 17.3064C12.9894 17.3064 12.9863 17.3064 12.9832 17.3064C12.98 17.3064 12.9769 17.3064 12.9737 17.3064C12.9706 17.3064 12.9674 17.3064 12.9643 17.3064C12.9611 17.3064 12.9579 17.3064 12.9547 17.3064C12.9515 17.3064 12.9483 17.3064 12.9451 17.3064C12.9419 17.3064 12.9387 17.3064 12.9354 17.3064C12.9322 17.3064 12.9289 17.3064 12.9257 17.3064C12.9224 17.3064 12.9192 17.3064 12.9159 17.3064C12.9126 17.3064 12.9093 17.3064 12.906 17.3064C12.9027 17.3064 12.8994 17.3064 12.8961 17.3064C12.8928 17.3064 12.8894 17.3064 12.8861 17.3064C12.8827 17.3064 12.8794 17.3064 12.876 17.3064C12.8727 17.3064 12.8693 17.3064 12.8659 17.3064C12.8625 17.3064 12.8591 17.3064 12.8557 17.3064C12.8523 17.3064 12.8489 17.3064 12.8455 17.3064C12.8421 17.3064 12.8386 17.3064 12.8352 17.3064C12.8317 17.3064 12.8283 17.3064 12.8248 17.3064C12.8213 17.3064 12.8179 17.3064 12.8144 17.3064C12.8109 17.3064 12.8074 17.3064 12.8039 17.3064C12.8004 17.3064 12.7969 17.3064 12.7934 17.3064C12.7898 17.3064 12.7863 17.3064 12.7828 17.3064C12.7792 17.3064 12.7757 17.3064 12.7721 17.3064C12.7685 17.3064 12.765 17.3064 12.7614 17.3064C12.7578 17.3064 12.7542 17.3064 12.7506 17.3064C12.747 17.3064 12.7434 17.3064 12.7398 17.3064C12.7362 17.3064 12.7325 17.3064 12.7289 17.3064C12.7252 17.3064 12.7216 17.3064 12.7179 17.3064C12.7143 17.3064 12.7106 17.3064 12.7069 17.3064C12.7033 17.3064 12.6996 17.3064 12.6959 17.3064C12.6922 17.3064 12.6885 17.3064 12.6848 17.3064C12.6811 17.3064 12.6773 17.3064 12.6736 17.3064C12.6699 17.3064 12.6661 17.3064 12.6624 17.3064C12.6586 17.3064 12.6549 17.3064 12.6511 17.3064C12.6474 17.3064 12.6436 17.3064 12.6398 17.3064C12.636 17.3064 12.6322 17.3064 12.6284 17.3064C12.6246 17.3064 12.6208 17.3064 12.617 17.3064C12.6132 17.3064 12.6093 17.3064 12.6055 17.3064C12.6017 17.3064 12.5978 17.3064 12.594 17.3064C12.5901 17.3064 12.5863 17.3064 12.5824 17.3064C12.5785 17.3064 12.5746 17.3064 12.5708 17.3064C12.5669 17.3064 12.563 17.3064 12.5591 17.3064C12.5552 17.3064 12.5513 17.3064 12.5473 17.3064C12.5434 17.3064 12.5395 17.3064 12.5356 17.3064C12.5316 17.3064 12.5277 17.3064 12.5237 17.3064C12.5198 17.3064 12.5158 17.3064 12.5118 17.3064C12.5079 17.3064 12.5039 17.3064 12.4999 17.3064C12.4959 17.3064 12.4919 17.3064 12.4879 17.3064C12.4839 17.3064 12.4799 17.3064 12.4759 17.3064C12.4719 17.3064 12.4679 17.3064 12.4639 17.3064C12.4598 17.3064 12.4558 17.3064 12.4517 17.3064C12.4477 17.3064 12.4436 17.3064 12.4396 17.3064C12.4355 17.3064 12.4314 17.3064 12.4274 17.3064C12.4233 17.3064 12.4192 17.3064 12.4151 17.3064C12.411 17.3064 12.4069 17.3064 12.4028 17.3064C12.3987 17.3064 12.3946 17.3064 12.3905 17.3064C12.3864 17.3064 12.3822 17.3064 12.3781 17.3064C12.374 17.3064 12.3698 17.3064 12.3657 17.3064C12.3615 17.3064 12.3574 17.3064 12.3532 17.3064C12.349 17.3064 12.3449 17.3064 12.3407 17.3064C12.3365 17.3064 12.3323 17.3064 12.3281 17.3064C12.3239 17.3064 12.3197 17.3064 12.3155 17.3064C12.3113 17.3064 12.3071 17.3064 12.3029 17.3064C12.2987 17.3064 12.2945 17.3064 12.2902 17.3064C12.286 17.3064 12.2817 17.3064 12.2775 17.3064C12.2733 17.3064 12.269 17.3064 12.2647 17.3064C12.2605 17.3064 12.2562 17.3064 12.2519 17.3064C12.2477 17.3064 12.2434 17.3064 12.2391 17.3064C12.2348 17.3064 12.2305 17.3064 12.2262 17.3064C12.2219 17.3064 12.2176 17.3064 12.2133 17.3064C12.209 17.3064 12.2047 17.3064 12.2004 17.3064C12.1961 17.3064 12.1917 17.3064 12.1874 17.3064C12.1831 17.3064 12.1787 17.3064 12.1744 17.3064C12.17 17.3064 12.1657 17.3064 12.1613 17.3064C12.1569 17.3064 12.1526 17.3064 12.1482 17.3064C12.1438 17.3064 12.1395 17.3064 12.1351 17.3064C12.1307 17.3064 12.1263 17.3064 12.1219 17.3064C12.1175 17.3064 12.1131 17.3064 12.1087 17.3064C12.1043 17.3064 12.0999 17.3064 12.0955 17.3064C12.0911 17.3064 12.0866 17.3064 12.0822 17.3064C12.0778 17.3064 12.0733 17.3064 12.0689 17.3064C12.0645 17.3064 12.06 17.3064 12.0556 17.3064C12.0511 17.3064 12.0467 17.3064 12.0422 17.3064C12.0377 17.3064 12.0333 17.3064 12.0288 17.3064C12.0243 17.3064 12.0199 17.3064 12.0154 17.3064C12.0109 17.3064 12.0064 17.3064 12.0019 17.3064C11.9974 17.3064 11.9929 17.3064 11.9884 17.3064C11.9839 17.3064 11.9794 17.3064 11.9749 17.3064C11.9704 17.3064 11.9659 17.3064 11.9613 17.3064C11.9568 17.3064 11.9523 17.3064 11.9478 17.3064C11.9432 17.3064 11.9387 17.3064 11.9341 17.3064C11.9296 17.3064 11.9251 17.3064 11.9205 17.3064C11.9159 17.3064 11.9114 17.3064 11.9068 17.3064C11.9023 17.3064 11.8977 17.3064 11.8931 17.3064C11.8886 17.3064 11.884 17.3064 11.8794 17.3064C11.8748 17.3064 11.8702 17.3064 11.8657 17.3064C11.8611 17.3064 11.8565 17.3064 11.8519 17.3064C11.8473 17.3064 11.8427 17.3064 11.8381 17.3064C11.8335 17.3064 11.8289 17.3064 11.8242 17.3064C11.8196 17.3064 11.815 17.3064 11.8104 17.3064C11.8058 17.3064 11.8011 17.3064 11.7965 17.3064C11.7919 17.3064 11.7872 17.3064 11.7826 17.3064C11.778 17.3064 11.7733 17.3064 11.7687 17.3064C11.764 17.3064 11.7594 17.3064 11.7547 17.3064C11.7501 17.3064 11.7454 17.3064 11.7408 17.3064C11.7361 17.3064 11.7314 17.3064 11.7268 17.3064C11.7221 17.3064 11.7174 17.3064 11.7127 17.3064C11.7081 17.3064 11.7034 17.3064 11.6987 17.3064C11.694 17.3064 11.6893 17.3064 11.6846 17.3064C11.68 17.3064 11.6753 17.3064 11.6706 17.3064C11.6659 17.3064 11.6612 17.3064 11.6565 17.3064C11.6518 17.3064 11.647 17.3064 11.6423 17.3064C11.6376 17.3064 11.6329 17.3064 11.6282 17.3064C11.6235 17.3064 11.6188 17.3064 11.614 17.3064C11.6093 17.3064 11.6046 17.3064 11.5998 17.3064C11.5951 17.3064 11.5904 17.3064 11.5856 17.3064C11.5809 17.3064 11.5762 17.3064 11.5714 17.3064C11.5667 17.3064 11.5619 17.3064 11.5572 17.3064C11.5524 17.3064 11.5477 17.3064 11.5429 17.3064C11.5382 17.3064 11.5334 17.3064 11.5287 17.3064C11.5239 17.3064 11.5192 17.3064 11.5144 17.3064C11.5096 17.3064 11.5049 17.3064 11.5001 17.3064C11.4953 17.3064 11.4906 17.3064 11.4858 17.3064C11.481 17.3064 11.4762 17.3064 11.4714 17.3064C11.4667 17.3064 11.4619 17.3064 11.4571 17.3064C11.4523 17.3064 11.4475 17.3064 11.4427 17.3064C11.438 17.3064 11.4332 17.3064 11.4284 17.3064C11.4236 17.3064 11.4188 17.3064 11.414 17.3064C11.4092 17.3064 11.4044 17.3064 11.3996 17.3064C11.3948 17.3064 11.39 17.3064 11.3852 17.3064C11.3804 17.3064 11.3756 17.3064 11.3708 17.3064C11.3659 17.3064 11.3611 17.3064 11.3563 17.3064C11.3515 17.3064 11.3467 17.3064 11.3419 17.3064C11.3371 17.3064 11.3322 17.3064 11.3274 17.3064C11.3226 17.3064 11.3178 17.3064 11.313 17.3064C11.3081 17.3064 11.3033 17.3064 11.2985 17.3064C11.2937 17.3064 11.2888 17.3064 11.284 17.3064C11.2792 17.3064 11.2743 17.3064 11.2695 17.3064C11.2647 17.3064 11.2598 17.3064 11.255 17.3064C11.2502 17.3064 11.2453 17.3064 11.2405 17.3064C11.2357 17.3064 11.2308 17.3064 11.226 17.3064C11.2211 17.3064 11.2163 17.3064 11.2114 17.3064C11.2066 17.3064 11.2018 17.3064 11.1969 17.3064C11.1921 17.3064 11.1872 17.3064 11.1824 17.3064C11.1775 17.3064 11.1727 17.3064 11.1678 17.3064C11.163 17.3064 11.1581 17.3064 11.1533 17.3064C11.1484 17.3064 11.1436 17.3064 11.1387 17.3064C11.1339 17.3064 11.129 17.3064 11.1242 17.3064C11.1193 17.3064 11.1145 17.3064 11.1096 17.3064C11.1048 17.3064 11.0999 17.3064 11.095 17.3064C11.0902 17.3064 11.0853 17.3064 11.0805 17.3064C11.0756 17.3064 11.0708 17.3064 11.0659 17.3064C11.061 17.3064 11.0562 17.3064 11.0513 17.3064C11.0465 17.3064 11.0416 17.3064 11.0367 17.3064C11.0319 17.3064 11.027 17.3064 11.0222 17.3064C11.0173 17.3064 11.0124 17.3064 11.0076 17.3064C11.0027 17.3064 10.9979 17.3064 10.993 17.3064C10.9881 17.3064 10.9833 17.3064 10.9784 17.3064C10.9736 17.3064 10.9687 17.3064 10.9638 17.3064C10.959 17.3064 10.9541 17.3064 10.9493 17.3064C10.9444 17.3064 10.9395 17.3064 10.9347 17.3064C10.9298 17.3064 10.925 17.3064 10.9201 17.3064C10.9152 17.3064 10.9104 17.3064 10.9055 17.3064C10.9007 17.3064 10.8958 17.3064 10.891 17.3064C10.8861 17.3064 10.8812 17.3064 10.8764 17.3064C10.8715 17.3064 10.8667 17.3064 10.8618 17.3064C10.857 17.3064 10.8521 17.3064 10.8473 17.3064C10.8424 17.3064 10.8375 17.3064 10.8327 17.3064C10.8278 17.3064 10.823 17.3064 10.8181 17.3064C10.8133 17.3064 10.8084 17.3064 10.8036 17.3064C10.7987 17.3064 10.7939 17.3064 10.789 17.3064C10.7842 17.3064 10.7793 17.3064 10.7745 17.3064C10.7697 17.3064 10.7648 17.3064 10.76 17.3064C10.7551 17.3064 10.7503 17.3064 10.7454 17.3064C10.7406 17.3064 10.7358 17.3064 10.7309 17.3064C10.7261 17.3064 10.7212 17.3064 10.7164 17.3064C10.7116 17.3064 10.7067 17.3064 10.7019 17.3064C10.6971 17.3064 10.6922 17.3064 10.6874 17.3064C10.6826 17.3064 10.6777 17.3064 10.6729 17.3064C10.6681 17.3064 10.6633 17.3064 10.6584 17.3064C10.6536 17.3064 10.6488 17.3064 10.644 17.3064C10.6391 17.3064 10.6343 17.3064 10.6295 17.3064C10.6247 17.3064 10.6199 17.3064 10.6151 17.3064C10.6102 17.3064 10.6054 17.3064 10.6006 17.3064C10.5958 17.3064 10.591 17.3064 10.5862 17.3064C10.5814 17.3064 10.5766 17.3064 10.5718 17.3064C10.567 17.3064 10.5622 17.3064 10.5574 17.3064C10.5526 17.3064 10.5478 17.3064 10.543 17.3064C10.5382 17.3064 10.5334 17.3064 10.5286 17.3064C10.5238 17.3064 10.519 17.3064 10.5142 17.3064C10.5095 17.3064 10.5047 17.3064 10.4999 17.3064C10.4951 17.3064 10.4903 17.3064 10.4855 17.3064C10.4808 17.3064 10.476 17.3064 10.4712 17.3064C10.4665 17.3064 10.4617 17.3064 10.4569 17.3064C10.4522 17.3064 10.4474 17.3064 10.4426 17.3064C10.4379 17.3064 10.4331 17.3064 10.4284 17.3064C10.4236 17.3064 10.4188 17.3064 10.4141 17.3064C10.4093 17.3064 10.4046 17.3064 10.3999 17.3064C10.3951 17.3064 10.3904 17.3064 10.3856 17.3064C10.3809 17.3064 10.3762 17.3064 10.3714 17.3064C10.3667 17.3064 10.362 17.3064 10.3572 17.3064C10.3525 17.3064 10.3478 17.3064 10.3431 17.3064C10.3383 17.3064 10.3336 17.3064 10.3289 17.3064C10.3242 17.3064 10.3195 17.3064 10.3148 17.3064C10.3101 17.3064 10.3054 17.3064 10.3007 17.3064C10.296 17.3064 10.2913 17.3064 10.2866 17.3064C10.2819 17.3064 10.2772 17.3064 10.2725 17.3064C10.2678 17.3064 10.2631 17.3064 10.2585 17.3064C10.2538 17.3064 10.2491 17.3064 10.2444 17.3064C10.2398 17.3064 10.2351 17.3064 10.2304 17.3064C10.2258 17.3064 10.2211 17.3064 10.2165 17.3064C10.2118 17.3064 10.2071 17.3064 10.2025 17.3064C10.1978 17.3064 10.1932 17.3064 10.1886 17.3064C10.1839 17.3064 10.1793 17.3064 10.1746 17.3064C10.17 17.3064 10.1654 17.3064 10.1608 17.3064C10.1561 17.3064 10.1515 17.3064 10.1469 17.3064C10.1423 17.3064 10.1377 17.3064 10.133 17.3064C10.1284 17.3064 10.1238 17.3064 10.1192 17.3064C10.1146 17.3064 10.11 17.3064 10.1054 17.3064C10.1009 17.3064 10.0963 17.3064 10.0917 17.3064C10.0871 17.3064 10.0825 17.3064 10.0779 17.3064C10.0734 17.3064 10.0688 17.3064 10.0642 17.3064C10.0597 17.3064 10.0551 17.3064 10.0506 17.3064C10.046 17.3064 10.0415 17.3064 10.0369 17.3064C10.0324 17.3064 10.0278 17.3064 10.0233 17.3064C10.0187 17.3064 10.0142 17.3064 10.0097 17.3064C10.0052 17.3064 10.0006 17.3064 9.99612 17.3064C9.99161 17.3064 9.98709 17.3064 9.98259 17.3064C9.97808 17.3064 9.97358 17.3064 9.96908 17.3064C9.96458 17.3064 9.96009 17.3064 9.95561 17.3064C9.95112 17.3064 9.94664 17.3064 9.94216 17.3064C9.93769 17.3064 9.93322 17.3064 9.92875 17.3064C9.92428 17.3064 9.91982 17.3064 9.91537 17.3064C9.91091 17.3064 9.90646 17.3064 9.90202 17.3064C9.89758 17.3064 9.89314 17.3064 9.8887 17.3064C9.88427 17.3064 9.87984 17.3064 9.87542 17.3064C9.871 17.3064 9.86658 17.3064 9.86217 17.3064C9.85776 17.3064 9.85336 17.3064 9.84896 17.3064C9.84456 17.3064 9.84017 17.3064 9.83578 17.3064C9.83139 17.3064 9.82701 17.3064 9.82263 17.3064C9.81826 17.3064 9.81388 17.3064 9.80952 17.3064C9.80516 17.3064 9.8008 17.3064 9.79645 17.3064C9.79209 17.3064 9.78775 17.3064 9.78341 17.3064C9.77907 17.3064 9.77473 17.3064 9.77041 17.3064C9.76608 17.3064 9.76176 17.3064 9.75744 17.3064C9.75313 17.3064 9.74882 17.3064 9.74451 17.3064C9.74021 17.3064 9.73591 17.3064 9.73162 17.3064C9.72733 17.3064 9.72305 17.3064 9.71877 17.3064C9.7145 17.3064 9.71023 17.3064 9.70596 17.3064C9.7017 17.3064 9.69744 17.3064 9.69319 17.3064C9.68894 17.3064 9.68469 17.3064 9.68045 17.3064C9.67622 17.3064 9.67198 17.3064 9.66776 17.3064C9.66354 17.3064 9.65932 17.3064 9.65511 17.3064C9.6509 17.3064 9.64669 17.3064 9.6425 17.3064C9.6383 17.3064 9.63411 17.3064 9.62992 17.3064C9.62574 17.3064 9.62156 17.3064 9.6174 17.3064C9.61323 17.3064 9.60906 17.3064 9.60491 17.3064C9.60075 17.3064 9.5966 17.3064 9.59246 17.3064C9.58832 17.3064 9.58419 17.3064 9.58006 17.3064C9.57594 17.3064 9.57182 17.3064 9.5677 17.3064C9.56359 17.3064 9.55949 17.3064 9.55539 17.3064C9.55129 17.3064 9.5472 17.3064 9.54312 17.3064C9.53904 17.3064 9.53496 17.3064 9.5309 17.3064C9.52683 17.3064 9.52277 17.3064 9.51872 17.3064C9.51466 17.3064 9.51062 17.3064 9.50658 17.3064C9.50255 17.3064 9.49852 17.3064 9.49449 17.3064C9.49047 17.3064 9.48646 17.3064 9.48245 17.3064C9.47845 17.3064 9.47445 17.3064 9.47046 17.3064C9.46647 17.3064 9.46249 17.3064 9.45851 17.3064C9.45454 17.3064 9.45057 17.3064 9.44661 17.3064C9.44265 17.3064 9.4387 17.3064 9.43476 17.3064C9.43082 17.3064 9.42688 17.3064 9.42296 17.3064C9.41903 17.3064 9.41511 17.3064 9.4112 17.3064C9.40729 17.3064 9.40339 17.3064 9.3995 17.3064C9.39561 17.3064 9.39172 17.3064 9.38784 17.3064C9.38397 17.3064 9.3801 17.3064 9.37624 17.3064C9.37238 17.3064 9.36853 17.3064 9.36469 17.3064C9.36084 17.3064 9.35701 17.3064 9.35318 17.3064C9.34936 17.3064 9.34554 17.3064 9.34173 17.3064C9.33793 17.3064 9.33413 17.3064 9.33034 17.3064C9.32654 17.3064 9.32276 17.3064 9.31899 17.3064C9.31522 17.3064 9.31145 17.3064 9.3077 17.3064C9.30394 17.3064 9.30019 17.3064 9.29646 17.3064C9.29272 17.3064 9.28899 17.3064 9.28527 17.3064C9.28155 17.3064 9.27784 17.3064 9.27414 17.3064C9.27044 17.3064 9.26674 17.3064 9.26306 17.3064C9.25938 17.3064 9.2557 17.3064 9.25204 17.3064C9.24837 17.3064 9.24472 17.3064 9.24107 17.3064C9.23743 17.3064 9.23379 17.3064 9.23016 17.3064C9.22653 17.3064 9.22292 17.3064 9.21931 17.3064C9.2157 17.3064 9.2121 17.3064 9.20851 17.3064C9.20492 17.3064 9.20134 17.3064 9.19777 17.3064C9.1942 17.3064 9.19064 17.3064 9.18709 17.3064C9.18354 17.3064 9.17999 17.3064 9.17646 17.3064C9.17293 17.3064 9.16941 17.3064 9.1659 17.3064C9.16238 17.3064 9.15888 17.3064 9.15539 17.3064C9.1519 17.3064 9.14841 17.3064 9.14494 17.3064C9.14147 17.3064 9.13801 17.3064 9.13455 17.3064C9.1311 17.3064 9.12766 17.3064 9.12422 17.3064C9.12079 17.3064 9.11737 17.3064 9.11396 17.3064C9.11054 17.3064 9.10714 17.3064 9.10375 17.3064C9.10036 17.3064 9.09698 17.3064 9.09361 17.3064C9.09023 17.3064 9.08687 17.3064 9.08352 17.3064C9.08017 17.3064 9.07683 17.3064 9.0735 17.3064C9.07017 17.3064 9.06685 17.3064 9.06354 17.3064C9.06024 17.3064 9.05694 17.3064 9.05365 17.3064C9.05036 17.3064 9.04708 17.3064 9.04382 17.3064C9.04055 17.3064 9.0373 17.3064 9.03405 17.3064C9.03081 17.3064 9.02757 17.3064 9.02435 17.3064C9.02113 17.3064 9.01791 17.3064 9.01471 17.3064C9.01151 17.3064 9.00832 17.3064 9.00514 17.3064C9.00196 17.3064 8.99879 17.3064 8.99563 17.3064C8.99248 17.3064 8.98933 17.3064 8.98619 17.3064C8.98306 17.3064 8.97993 17.3064 8.97682 17.3064C8.97371 17.3064 8.9706 17.3064 8.96751 17.3064C8.96442 17.3064 8.96134 17.3064 8.95827 17.3064C8.95521 17.3064 8.95215 17.3064 8.9491 17.3064C8.94606 17.3064 8.94302 17.3064 8.94 17.3064C8.93698 17.3064 8.93397 17.3064 8.93097 17.3064C8.92797 17.3064 8.92498 17.3064 8.922 17.3064C8.91902 17.3064 8.91606 17.3064 8.91311 17.3064C8.91015 17.3064 8.90721 17.3064 8.90428 17.3064C8.90135 17.3064 8.89843 17.3064 8.89553 17.3064C8.89262 17.3064 8.88973 17.3064 8.88684 17.3064C8.88396 17.3064 8.88109 17.3064 8.87823 17.3064C8.87537 17.3064 8.87252 17.3064 8.86969 17.3064C8.86686 17.3064 8.86403 17.3064 8.86122 17.3064C8.85841 17.3064 8.85561 17.3064 8.85283 17.3064C8.85004 17.3064 8.84727 17.3064 8.8445 17.3064C8.84174 17.3064 8.83899 17.3064 8.83625 17.3064C8.83352 17.3064 8.83079 17.3064 8.82808 17.3064C8.82537 17.3064 8.82267 17.3064 8.81998 17.3064C8.81729 17.3064 8.81462 17.3064 8.81195 17.3064C8.80929 17.3064 8.80664 17.3064 8.804 17.3064C8.80136 17.3064 8.79874 17.3064 8.79613 17.3064C8.79351 17.3064 8.79091 17.3064 8.78833 17.3064C8.78574 17.3064 8.78317 17.3064 8.78061 17.3064C8.77804 17.3064 8.7755 17.3064 8.77296 17.3064C8.77042 17.3064 8.7679 17.3064 8.76539 17.3064C8.76288 17.3064 8.76038 17.3064 8.7579 17.3064C8.75542 17.3064 8.75295 17.3064 8.75049 17.3064C8.74803 17.3064 8.74559 17.3064 8.74316 17.3064C8.74072 17.3064 8.73831 17.3064 8.7359 17.3064C8.7335 17.3064 8.7311 17.3064 8.72873 17.3064C8.72635 17.3064 8.72398 17.3064 8.72163 17.3064C8.71928 17.3064 8.71694 17.3064 8.71462 17.3064C8.71229 17.3064 8.70998 17.3064 8.70768 17.3064C8.70538 17.3064 8.7031 17.3064 8.70083 17.3064C8.69856 17.3064 8.6963 17.3064 8.69406 17.3064C8.69181 17.3064 8.68959 17.3064 8.68737 17.3064C8.68515 17.3064 8.68295 17.3064 8.68076 17.3064C8.67857 17.3064 8.6764 17.3064 8.67424 17.3064C8.67208 17.3064 8.66993 17.3064 8.6678 17.3064C8.66567 17.3064 8.66355 17.3064 8.66144 17.3064C8.65934 17.3064 8.65725 17.3064 8.65517 17.3064C8.65309 17.3064 8.65103 17.3064 8.64898 17.3064C8.64693 17.3064 8.6449 17.3064 8.64288 17.3064C8.64086 17.3064 8.63886 17.3064 8.63686 17.3064C8.63487 17.3064 8.6329 17.3064 8.63093 17.3064C8.62897 17.3064 8.62702 17.3064 8.62509 17.3064C8.62316 17.3064 8.62124 17.3064 8.61933 17.3064C8.61743 17.3064 8.61554 17.3064 8.61366 17.3064C8.61178 17.3064 8.60992 17.3064 8.60808 17.3064C8.60623 17.3064 8.6044 17.3064 8.60258 17.3064C8.60077 17.3064 8.59896 17.3064 8.59718 17.3064C8.59539 17.3064 8.59362 17.3064 8.59186 17.3064C8.5901 17.3064 8.58836 17.3064 8.58663 17.3064C8.5849 17.3064 8.58319 17.3064 8.58149 17.3064C8.5798 17.3064 8.57811 17.3064 8.57645 17.3064C8.57478 17.3064 8.57313 17.3064 8.57149 17.3064C8.56985 17.3064 8.56823 17.3064 8.56662 17.3064C8.56502 17.3064 8.56342 17.3064 8.56185 17.3064C8.56027 17.3064 8.55871 17.3064 8.55717 17.3064C8.55562 17.3064 8.55409 17.3064 8.55258 17.3064C8.55106 17.3064 8.54956 17.3064 8.54808 17.3064C8.54659 17.3064 8.54513 17.3064 8.54367 17.3064C8.54222 17.3064 8.54078 17.3064 8.53936 17.3064C8.53794 17.3064 8.53654 17.3064 8.53515 17.3064C8.53376 17.3064 8.53238 17.3064 8.53102 17.3064C8.52967 17.3064 8.52832 17.3064 8.527 17.3064C8.52567 17.3064 8.52436 17.3064 8.52307 17.3064C8.52177 17.3064 8.52049 17.3064 8.51923 17.3064C8.51797 17.3064 8.51672 17.3064 8.51549 17.3064C8.51426 17.3064 8.51305 17.3064 8.51185 17.3064C8.51065 17.3064 8.50947 17.3064 8.5083 17.3064C8.50714 17.3064 8.50599 17.3064 8.50485 17.3064C8.50372 17.3064 8.5026 17.3064 8.5015 17.3064C8.5004 17.3064 8.49932 17.3064 8.49825 17.3064C8.49718 17.3064 8.49613 17.3064 8.4951 17.3064C8.49406 17.3064 8.49305 17.3064 8.49204 17.3064C8.49104 17.3064 8.49006 17.3064 8.48909 17.3064C8.48812 17.3064 8.48717 17.3064 8.48624 17.3064C8.4853 17.3064 8.48438 17.3064 8.48348 17.3064C8.48258 17.3064 8.4817 17.3064 8.48083 17.3064C8.47996 17.3064 8.47911 17.3064 8.47828 17.3064C8.47745 17.3064 8.47663 17.3064 8.47583 17.3064C8.47503 17.3064 8.47425 17.3064 8.47348 17.3064C8.47272 17.3064 8.47197 17.3064 8.47124 17.3064C8.47051 17.3064 8.46979 17.3064 8.4691 17.3064C8.4684 17.3064 8.46772 17.3064 8.46706 17.3064C8.4664 17.3064 8.46575 17.3064 8.46513 17.3064C8.4645 17.3064 8.46389 17.3064 8.4633 17.3064C8.4627 17.3064 8.46213 17.3064 8.46157 17.3064C8.46101 17.3064 8.46047 17.3064 8.45995 17.3064C8.45943 17.3064 8.45893 17.3064 8.45844 17.3064C8.45795 17.3064 8.45748 17.3064 8.45703 17.3064C8.45658 17.3064 8.45615 17.3064 8.45573 17.3064C8.45532 17.3064 8.45492 17.3064 8.45454 17.3064C8.45416 17.3064 8.45379 17.3064 8.45345 17.3064V18.3064V19.3064C8.45379 19.3064 8.45416 19.3064 8.45454 19.3064C8.45492 19.3064 8.45532 19.3064 8.45573 19.3064C8.45615 19.3064 8.45658 19.3064 8.45703 19.3064C8.45748 19.3064 8.45795 19.3064 8.45844 19.3064C8.45893 19.3064 8.45943 19.3064 8.45995 19.3064C8.46047 19.3064 8.46101 19.3064 8.46157 19.3064C8.46213 19.3064 8.4627 19.3064 8.4633 19.3064C8.46389 19.3064 8.4645 19.3064 8.46513 19.3064C8.46575 19.3064 8.4664 19.3064 8.46706 19.3064C8.46772 19.3064 8.4684 19.3064 8.4691 19.3064C8.46979 19.3064 8.47051 19.3064 8.47124 19.3064C8.47197 19.3064 8.47272 19.3064 8.47348 19.3064C8.47425 19.3064 8.47503 19.3064 8.47583 19.3064C8.47663 19.3064 8.47745 19.3064 8.47828 19.3064C8.47911 19.3064 8.47996 19.3064 8.48083 19.3064C8.4817 19.3064 8.48258 19.3064 8.48348 19.3064C8.48438 19.3064 8.4853 19.3064 8.48624 19.3064C8.48717 19.3064 8.48812 19.3064 8.48909 19.3064C8.49006 19.3064 8.49104 19.3064 8.49204 19.3064C8.49305 19.3064 8.49406 19.3064 8.4951 19.3064C8.49613 19.3064 8.49718 19.3064 8.49825 19.3064C8.49932 19.3064 8.5004 19.3064 8.5015 19.3064C8.5026 19.3064 8.50372 19.3064 8.50485 19.3064C8.50599 19.3064 8.50714 19.3064 8.5083 19.3064C8.50947 19.3064 8.51065 19.3064 8.51185 19.3064C8.51305 19.3064 8.51426 19.3064 8.51549 19.3064C8.51672 19.3064 8.51797 19.3064 8.51923 19.3064C8.52049 19.3064 8.52177 19.3064 8.52307 19.3064C8.52436 19.3064 8.52567 19.3064 8.527 19.3064C8.52832 19.3064 8.52967 19.3064 8.53102 19.3064C8.53238 19.3064 8.53376 19.3064 8.53515 19.3064C8.53654 19.3064 8.53794 19.3064 8.53936 19.3064C8.54078 19.3064 8.54222 19.3064 8.54367 19.3064C8.54513 19.3064 8.54659 19.3064 8.54808 19.3064C8.54956 19.3064 8.55106 19.3064 8.55258 19.3064C8.55409 19.3064 8.55562 19.3064 8.55717 19.3064C8.55871 19.3064 8.56027 19.3064 8.56185 19.3064C8.56342 19.3064 8.56502 19.3064 8.56662 19.3064C8.56823 19.3064 8.56985 19.3064 8.57149 19.3064C8.57313 19.3064 8.57478 19.3064 8.57645 19.3064C8.57811 19.3064 8.5798 19.3064 8.58149 19.3064C8.58319 19.3064 8.5849 19.3064 8.58663 19.3064C8.58836 19.3064 8.5901 19.3064 8.59186 19.3064C8.59362 19.3064 8.59539 19.3064 8.59718 19.3064C8.59896 19.3064 8.60077 19.3064 8.60258 19.3064C8.6044 19.3064 8.60623 19.3064 8.60808 19.3064C8.60992 19.3064 8.61178 19.3064 8.61366 19.3064C8.61554 19.3064 8.61743 19.3064 8.61933 19.3064C8.62124 19.3064 8.62316 19.3064 8.62509 19.3064C8.62702 19.3064 8.62897 19.3064 8.63093 19.3064C8.6329 19.3064 8.63487 19.3064 8.63686 19.3064C8.63886 19.3064 8.64086 19.3064 8.64288 19.3064C8.6449 19.3064 8.64693 19.3064 8.64898 19.3064C8.65103 19.3064 8.65309 19.3064 8.65517 19.3064C8.65725 19.3064 8.65934 19.3064 8.66144 19.3064C8.66355 19.3064 8.66567 19.3064 8.6678 19.3064C8.66993 19.3064 8.67208 19.3064 8.67424 19.3064C8.6764 19.3064 8.67857 19.3064 8.68076 19.3064C8.68295 19.3064 8.68515 19.3064 8.68737 19.3064C8.68959 19.3064 8.69181 19.3064 8.69406 19.3064C8.6963 19.3064 8.69856 19.3064 8.70083 19.3064C8.7031 19.3064 8.70538 19.3064 8.70768 19.3064C8.70998 19.3064 8.71229 19.3064 8.71462 19.3064C8.71694 19.3064 8.71928 19.3064 8.72163 19.3064C8.72398 19.3064 8.72635 19.3064 8.72873 19.3064C8.7311 19.3064 8.7335 19.3064 8.7359 19.3064C8.73831 19.3064 8.74072 19.3064 8.74316 19.3064C8.74559 19.3064 8.74803 19.3064 8.75049 19.3064C8.75295 19.3064 8.75542 19.3064 8.7579 19.3064C8.76038 19.3064 8.76288 19.3064 8.76539 19.3064C8.7679 19.3064 8.77042 19.3064 8.77296 19.3064C8.7755 19.3064 8.77804 19.3064 8.78061 19.3064C8.78317 19.3064 8.78574 19.3064 8.78833 19.3064C8.79091 19.3064 8.79351 19.3064 8.79613 19.3064C8.79874 19.3064 8.80136 19.3064 8.804 19.3064C8.80664 19.3064 8.80929 19.3064 8.81195 19.3064C8.81462 19.3064 8.81729 19.3064 8.81998 19.3064C8.82267 19.3064 8.82537 19.3064 8.82808 19.3064C8.83079 19.3064 8.83352 19.3064 8.83625 19.3064C8.83899 19.3064 8.84174 19.3064 8.8445 19.3064C8.84727 19.3064 8.85004 19.3064 8.85283 19.3064C8.85561 19.3064 8.85841 19.3064 8.86122 19.3064C8.86403 19.3064 8.86686 19.3064 8.86969 19.3064C8.87252 19.3064 8.87537 19.3064 8.87823 19.3064C8.88109 19.3064 8.88396 19.3064 8.88684 19.3064C8.88973 19.3064 8.89262 19.3064 8.89553 19.3064C8.89843 19.3064 8.90135 19.3064 8.90428 19.3064C8.90721 19.3064 8.91015 19.3064 8.91311 19.3064C8.91606 19.3064 8.91902 19.3064 8.922 19.3064C8.92498 19.3064 8.92797 19.3064 8.93097 19.3064C8.93397 19.3064 8.93698 19.3064 8.94 19.3064C8.94302 19.3064 8.94606 19.3064 8.9491 19.3064C8.95215 19.3064 8.95521 19.3064 8.95827 19.3064C8.96134 19.3064 8.96442 19.3064 8.96751 19.3064C8.9706 19.3064 8.97371 19.3064 8.97682 19.3064C8.97993 19.3064 8.98306 19.3064 8.98619 19.3064C8.98933 19.3064 8.99248 19.3064 8.99563 19.3064C8.99879 19.3064 9.00196 19.3064 9.00514 19.3064C9.00832 19.3064 9.01151 19.3064 9.01471 19.3064C9.01791 19.3064 9.02113 19.3064 9.02435 19.3064C9.02757 19.3064 9.03081 19.3064 9.03405 19.3064C9.0373 19.3064 9.04055 19.3064 9.04382 19.3064C9.04708 19.3064 9.05036 19.3064 9.05365 19.3064C9.05694 19.3064 9.06024 19.3064 9.06354 19.3064C9.06685 19.3064 9.07017 19.3064 9.0735 19.3064C9.07683 19.3064 9.08017 19.3064 9.08352 19.3064C9.08687 19.3064 9.09023 19.3064 9.09361 19.3064C9.09698 19.3064 9.10036 19.3064 9.10375 19.3064C9.10714 19.3064 9.11054 19.3064 9.11396 19.3064C9.11737 19.3064 9.12079 19.3064 9.12422 19.3064C9.12766 19.3064 9.1311 19.3064 9.13455 19.3064C9.13801 19.3064 9.14147 19.3064 9.14494 19.3064C9.14841 19.3064 9.1519 19.3064 9.15539 19.3064C9.15888 19.3064 9.16238 19.3064 9.1659 19.3064C9.16941 19.3064 9.17293 19.3064 9.17646 19.3064C9.17999 19.3064 9.18354 19.3064 9.18709 19.3064C9.19064 19.3064 9.1942 19.3064 9.19777 19.3064C9.20134 19.3064 9.20492 19.3064 9.20851 19.3064C9.2121 19.3064 9.2157 19.3064 9.21931 19.3064C9.22292 19.3064 9.22653 19.3064 9.23016 19.3064C9.23379 19.3064 9.23743 19.3064 9.24107 19.3064C9.24472 19.3064 9.24837 19.3064 9.25204 19.3064C9.2557 19.3064 9.25938 19.3064 9.26306 19.3064C9.26674 19.3064 9.27044 19.3064 9.27414 19.3064C9.27784 19.3064 9.28155 19.3064 9.28527 19.3064C9.28899 19.3064 9.29272 19.3064 9.29646 19.3064C9.30019 19.3064 9.30394 19.3064 9.3077 19.3064C9.31145 19.3064 9.31522 19.3064 9.31899 19.3064C9.32276 19.3064 9.32654 19.3064 9.33034 19.3064C9.33413 19.3064 9.33793 19.3064 9.34173 19.3064C9.34554 19.3064 9.34936 19.3064 9.35318 19.3064C9.35701 19.3064 9.36084 19.3064 9.36469 19.3064C9.36853 19.3064 9.37238 19.3064 9.37624 19.3064C9.3801 19.3064 9.38397 19.3064 9.38784 19.3064C9.39172 19.3064 9.39561 19.3064 9.3995 19.3064C9.40339 19.3064 9.40729 19.3064 9.4112 19.3064C9.41511 19.3064 9.41903 19.3064 9.42296 19.3064C9.42688 19.3064 9.43082 19.3064 9.43476 19.3064C9.4387 19.3064 9.44265 19.3064 9.44661 19.3064C9.45057 19.3064 9.45454 19.3064 9.45851 19.3064C9.46249 19.3064 9.46647 19.3064 9.47046 19.3064C9.47445 19.3064 9.47845 19.3064 9.48245 19.3064C9.48646 19.3064 9.49047 19.3064 9.49449 19.3064C9.49852 19.3064 9.50255 19.3064 9.50658 19.3064C9.51062 19.3064 9.51466 19.3064 9.51872 19.3064C9.52277 19.3064 9.52683 19.3064 9.5309 19.3064C9.53496 19.3064 9.53904 19.3064 9.54312 19.3064C9.5472 19.3064 9.55129 19.3064 9.55539 19.3064C9.55949 19.3064 9.56359 19.3064 9.5677 19.3064C9.57182 19.3064 9.57594 19.3064 9.58006 19.3064C9.58419 19.3064 9.58832 19.3064 9.59246 19.3064C9.5966 19.3064 9.60075 19.3064 9.60491 19.3064C9.60906 19.3064 9.61323 19.3064 9.6174 19.3064C9.62156 19.3064 9.62574 19.3064 9.62992 19.3064C9.63411 19.3064 9.6383 19.3064 9.6425 19.3064C9.64669 19.3064 9.6509 19.3064 9.65511 19.3064C9.65932 19.3064 9.66354 19.3064 9.66776 19.3064C9.67198 19.3064 9.67622 19.3064 9.68045 19.3064C9.68469 19.3064 9.68894 19.3064 9.69319 19.3064C9.69744 19.3064 9.7017 19.3064 9.70596 19.3064C9.71023 19.3064 9.7145 19.3064 9.71877 19.3064C9.72305 19.3064 9.72733 19.3064 9.73162 19.3064C9.73591 19.3064 9.74021 19.3064 9.74451 19.3064C9.74882 19.3064 9.75313 19.3064 9.75744 19.3064C9.76176 19.3064 9.76608 19.3064 9.77041 19.3064C9.77473 19.3064 9.77907 19.3064 9.78341 19.3064C9.78775 19.3064 9.79209 19.3064 9.79645 19.3064C9.8008 19.3064 9.80516 19.3064 9.80952 19.3064C9.81388 19.3064 9.81826 19.3064 9.82263 19.3064C9.82701 19.3064 9.83139 19.3064 9.83578 19.3064C9.84017 19.3064 9.84456 19.3064 9.84896 19.3064C9.85336 19.3064 9.85776 19.3064 9.86217 19.3064C9.86658 19.3064 9.871 19.3064 9.87542 19.3064C9.87984 19.3064 9.88427 19.3064 9.8887 19.3064C9.89314 19.3064 9.89758 19.3064 9.90202 19.3064C9.90646 19.3064 9.91091 19.3064 9.91537 19.3064C9.91982 19.3064 9.92428 19.3064 9.92875 19.3064C9.93322 19.3064 9.93769 19.3064 9.94216 19.3064C9.94664 19.3064 9.95112 19.3064 9.95561 19.3064C9.96009 19.3064 9.96458 19.3064 9.96908 19.3064C9.97358 19.3064 9.97808 19.3064 9.98259 19.3064C9.98709 19.3064 9.99161 19.3064 9.99612 19.3064C10.0006 19.3064 10.0052 19.3064 10.0097 19.3064C10.0142 19.3064 10.0187 19.3064 10.0233 19.3064C10.0278 19.3064 10.0324 19.3064 10.0369 19.3064C10.0415 19.3064 10.046 19.3064 10.0506 19.3064C10.0551 19.3064 10.0597 19.3064 10.0642 19.3064C10.0688 19.3064 10.0734 19.3064 10.0779 19.3064C10.0825 19.3064 10.0871 19.3064 10.0917 19.3064C10.0963 19.3064 10.1009 19.3064 10.1054 19.3064C10.11 19.3064 10.1146 19.3064 10.1192 19.3064C10.1238 19.3064 10.1284 19.3064 10.133 19.3064C10.1377 19.3064 10.1423 19.3064 10.1469 19.3064C10.1515 19.3064 10.1561 19.3064 10.1608 19.3064C10.1654 19.3064 10.17 19.3064 10.1746 19.3064C10.1793 19.3064 10.1839 19.3064 10.1886 19.3064C10.1932 19.3064 10.1978 19.3064 10.2025 19.3064C10.2071 19.3064 10.2118 19.3064 10.2165 19.3064C10.2211 19.3064 10.2258 19.3064 10.2304 19.3064C10.2351 19.3064 10.2398 19.3064 10.2444 19.3064C10.2491 19.3064 10.2538 19.3064 10.2585 19.3064C10.2631 19.3064 10.2678 19.3064 10.2725 19.3064C10.2772 19.3064 10.2819 19.3064 10.2866 19.3064C10.2913 19.3064 10.296 19.3064 10.3007 19.3064C10.3054 19.3064 10.3101 19.3064 10.3148 19.3064C10.3195 19.3064 10.3242 19.3064 10.3289 19.3064C10.3336 19.3064 10.3383 19.3064 10.3431 19.3064C10.3478 19.3064 10.3525 19.3064 10.3572 19.3064C10.362 19.3064 10.3667 19.3064 10.3714 19.3064C10.3762 19.3064 10.3809 19.3064 10.3856 19.3064C10.3904 19.3064 10.3951 19.3064 10.3999 19.3064C10.4046 19.3064 10.4093 19.3064 10.4141 19.3064C10.4188 19.3064 10.4236 19.3064 10.4284 19.3064C10.4331 19.3064 10.4379 19.3064 10.4426 19.3064C10.4474 19.3064 10.4522 19.3064 10.4569 19.3064C10.4617 19.3064 10.4665 19.3064 10.4712 19.3064C10.476 19.3064 10.4808 19.3064 10.4855 19.3064C10.4903 19.3064 10.4951 19.3064 10.4999 19.3064C10.5047 19.3064 10.5095 19.3064 10.5142 19.3064C10.519 19.3064 10.5238 19.3064 10.5286 19.3064C10.5334 19.3064 10.5382 19.3064 10.543 19.3064C10.5478 19.3064 10.5526 19.3064 10.5574 19.3064C10.5622 19.3064 10.567 19.3064 10.5718 19.3064C10.5766 19.3064 10.5814 19.3064 10.5862 19.3064C10.591 19.3064 10.5958 19.3064 10.6006 19.3064C10.6054 19.3064 10.6102 19.3064 10.6151 19.3064C10.6199 19.3064 10.6247 19.3064 10.6295 19.3064C10.6343 19.3064 10.6391 19.3064 10.644 19.3064C10.6488 19.3064 10.6536 19.3064 10.6584 19.3064C10.6633 19.3064 10.6681 19.3064 10.6729 19.3064C10.6777 19.3064 10.6826 19.3064 10.6874 19.3064C10.6922 19.3064 10.6971 19.3064 10.7019 19.3064C10.7067 19.3064 10.7116 19.3064 10.7164 19.3064C10.7212 19.3064 10.7261 19.3064 10.7309 19.3064C10.7358 19.3064 10.7406 19.3064 10.7454 19.3064C10.7503 19.3064 10.7551 19.3064 10.76 19.3064C10.7648 19.3064 10.7697 19.3064 10.7745 19.3064C10.7793 19.3064 10.7842 19.3064 10.789 19.3064C10.7939 19.3064 10.7987 19.3064 10.8036 19.3064C10.8084 19.3064 10.8133 19.3064 10.8181 19.3064C10.823 19.3064 10.8278 19.3064 10.8327 19.3064C10.8375 19.3064 10.8424 19.3064 10.8473 19.3064C10.8521 19.3064 10.857 19.3064 10.8618 19.3064C10.8667 19.3064 10.8715 19.3064 10.8764 19.3064C10.8812 19.3064 10.8861 19.3064 10.891 19.3064C10.8958 19.3064 10.9007 19.3064 10.9055 19.3064C10.9104 19.3064 10.9152 19.3064 10.9201 19.3064C10.925 19.3064 10.9298 19.3064 10.9347 19.3064C10.9395 19.3064 10.9444 19.3064 10.9493 19.3064C10.9541 19.3064 10.959 19.3064 10.9638 19.3064C10.9687 19.3064 10.9736 19.3064 10.9784 19.3064C10.9833 19.3064 10.9881 19.3064 10.993 19.3064C10.9979 19.3064 11.0027 19.3064 11.0076 19.3064C11.0124 19.3064 11.0173 19.3064 11.0222 19.3064C11.027 19.3064 11.0319 19.3064 11.0367 19.3064C11.0416 19.3064 11.0465 19.3064 11.0513 19.3064C11.0562 19.3064 11.061 19.3064 11.0659 19.3064C11.0708 19.3064 11.0756 19.3064 11.0805 19.3064C11.0853 19.3064 11.0902 19.3064 11.095 19.3064C11.0999 19.3064 11.1048 19.3064 11.1096 19.3064C11.1145 19.3064 11.1193 19.3064 11.1242 19.3064C11.129 19.3064 11.1339 19.3064 11.1387 19.3064C11.1436 19.3064 11.1484 19.3064 11.1533 19.3064C11.1581 19.3064 11.163 19.3064 11.1678 19.3064C11.1727 19.3064 11.1775 19.3064 11.1824 19.3064C11.1872 19.3064 11.1921 19.3064 11.1969 19.3064C11.2018 19.3064 11.2066 19.3064 11.2114 19.3064C11.2163 19.3064 11.2211 19.3064 11.226 19.3064C11.2308 19.3064 11.2357 19.3064 11.2405 19.3064C11.2453 19.3064 11.2502 19.3064 11.255 19.3064C11.2598 19.3064 11.2647 19.3064 11.2695 19.3064C11.2743 19.3064 11.2792 19.3064 11.284 19.3064C11.2888 19.3064 11.2937 19.3064 11.2985 19.3064C11.3033 19.3064 11.3081 19.3064 11.313 19.3064C11.3178 19.3064 11.3226 19.3064 11.3274 19.3064C11.3322 19.3064 11.3371 19.3064 11.3419 19.3064C11.3467 19.3064 11.3515 19.3064 11.3563 19.3064C11.3611 19.3064 11.3659 19.3064 11.3708 19.3064C11.3756 19.3064 11.3804 19.3064 11.3852 19.3064C11.39 19.3064 11.3948 19.3064 11.3996 19.3064C11.4044 19.3064 11.4092 19.3064 11.414 19.3064C11.4188 19.3064 11.4236 19.3064 11.4284 19.3064C11.4332 19.3064 11.438 19.3064 11.4427 19.3064C11.4475 19.3064 11.4523 19.3064 11.4571 19.3064C11.4619 19.3064 11.4667 19.3064 11.4714 19.3064C11.4762 19.3064 11.481 19.3064 11.4858 19.3064C11.4906 19.3064 11.4953 19.3064 11.5001 19.3064C11.5049 19.3064 11.5096 19.3064 11.5144 19.3064C11.5192 19.3064 11.5239 19.3064 11.5287 19.3064C11.5334 19.3064 11.5382 19.3064 11.5429 19.3064C11.5477 19.3064 11.5524 19.3064 11.5572 19.3064C11.5619 19.3064 11.5667 19.3064 11.5714 19.3064C11.5762 19.3064 11.5809 19.3064 11.5856 19.3064C11.5904 19.3064 11.5951 19.3064 11.5998 19.3064C11.6046 19.3064 11.6093 19.3064 11.614 19.3064C11.6188 19.3064 11.6235 19.3064 11.6282 19.3064C11.6329 19.3064 11.6376 19.3064 11.6423 19.3064C11.647 19.3064 11.6518 19.3064 11.6565 19.3064C11.6612 19.3064 11.6659 19.3064 11.6706 19.3064C11.6753 19.3064 11.68 19.3064 11.6846 19.3064C11.6893 19.3064 11.694 19.3064 11.6987 19.3064C11.7034 19.3064 11.7081 19.3064 11.7127 19.3064C11.7174 19.3064 11.7221 19.3064 11.7268 19.3064C11.7314 19.3064 11.7361 19.3064 11.7408 19.3064C11.7454 19.3064 11.7501 19.3064 11.7547 19.3064C11.7594 19.3064 11.764 19.3064 11.7687 19.3064C11.7733 19.3064 11.778 19.3064 11.7826 19.3064C11.7872 19.3064 11.7919 19.3064 11.7965 19.3064C11.8011 19.3064 11.8058 19.3064 11.8104 19.3064C11.815 19.3064 11.8196 19.3064 11.8242 19.3064C11.8289 19.3064 11.8335 19.3064 11.8381 19.3064C11.8427 19.3064 11.8473 19.3064 11.8519 19.3064C11.8565 19.3064 11.8611 19.3064 11.8657 19.3064C11.8702 19.3064 11.8748 19.3064 11.8794 19.3064C11.884 19.3064 11.8886 19.3064 11.8931 19.3064C11.8977 19.3064 11.9023 19.3064 11.9068 19.3064C11.9114 19.3064 11.9159 19.3064 11.9205 19.3064C11.9251 19.3064 11.9296 19.3064 11.9341 19.3064C11.9387 19.3064 11.9432 19.3064 11.9478 19.3064C11.9523 19.3064 11.9568 19.3064 11.9613 19.3064C11.9659 19.3064 11.9704 19.3064 11.9749 19.3064C11.9794 19.3064 11.9839 19.3064 11.9884 19.3064C11.9929 19.3064 11.9974 19.3064 12.0019 19.3064C12.0064 19.3064 12.0109 19.3064 12.0154 19.3064C12.0199 19.3064 12.0243 19.3064 12.0288 19.3064C12.0333 19.3064 12.0377 19.3064 12.0422 19.3064C12.0467 19.3064 12.0511 19.3064 12.0556 19.3064C12.06 19.3064 12.0645 19.3064 12.0689 19.3064C12.0733 19.3064 12.0778 19.3064 12.0822 19.3064C12.0866 19.3064 12.0911 19.3064 12.0955 19.3064C12.0999 19.3064 12.1043 19.3064 12.1087 19.3064C12.1131 19.3064 12.1175 19.3064 12.1219 19.3064C12.1263 19.3064 12.1307 19.3064 12.1351 19.3064C12.1395 19.3064 12.1438 19.3064 12.1482 19.3064C12.1526 19.3064 12.1569 19.3064 12.1613 19.3064C12.1657 19.3064 12.17 19.3064 12.1744 19.3064C12.1787 19.3064 12.1831 19.3064 12.1874 19.3064C12.1917 19.3064 12.1961 19.3064 12.2004 19.3064C12.2047 19.3064 12.209 19.3064 12.2133 19.3064C12.2176 19.3064 12.2219 19.3064 12.2262 19.3064C12.2305 19.3064 12.2348 19.3064 12.2391 19.3064C12.2434 19.3064 12.2477 19.3064 12.2519 19.3064C12.2562 19.3064 12.2605 19.3064 12.2647 19.3064C12.269 19.3064 12.2733 19.3064 12.2775 19.3064C12.2817 19.3064 12.286 19.3064 12.2902 19.3064C12.2945 19.3064 12.2987 19.3064 12.3029 19.3064C12.3071 19.3064 12.3113 19.3064 12.3155 19.3064C12.3197 19.3064 12.3239 19.3064 12.3281 19.3064C12.3323 19.3064 12.3365 19.3064 12.3407 19.3064C12.3449 19.3064 12.349 19.3064 12.3532 19.3064C12.3574 19.3064 12.3615 19.3064 12.3657 19.3064C12.3698 19.3064 12.374 19.3064 12.3781 19.3064C12.3822 19.3064 12.3864 19.3064 12.3905 19.3064C12.3946 19.3064 12.3987 19.3064 12.4028 19.3064C12.4069 19.3064 12.411 19.3064 12.4151 19.3064C12.4192 19.3064 12.4233 19.3064 12.4274 19.3064C12.4314 19.3064 12.4355 19.3064 12.4396 19.3064C12.4436 19.3064 12.4477 19.3064 12.4517 19.3064C12.4558 19.3064 12.4598 19.3064 12.4639 19.3064C12.4679 19.3064 12.4719 19.3064 12.4759 19.3064C12.4799 19.3064 12.4839 19.3064 12.4879 19.3064C12.4919 19.3064 12.4959 19.3064 12.4999 19.3064C12.5039 19.3064 12.5079 19.3064 12.5118 19.3064C12.5158 19.3064 12.5198 19.3064 12.5237 19.3064C12.5277 19.3064 12.5316 19.3064 12.5356 19.3064C12.5395 19.3064 12.5434 19.3064 12.5473 19.3064C12.5513 19.3064 12.5552 19.3064 12.5591 19.3064C12.563 19.3064 12.5669 19.3064 12.5708 19.3064C12.5746 19.3064 12.5785 19.3064 12.5824 19.3064C12.5863 19.3064 12.5901 19.3064 12.594 19.3064C12.5978 19.3064 12.6017 19.3064 12.6055 19.3064C12.6093 19.3064 12.6132 19.3064 12.617 19.3064C12.6208 19.3064 12.6246 19.3064 12.6284 19.3064C12.6322 19.3064 12.636 19.3064 12.6398 19.3064C12.6436 19.3064 12.6474 19.3064 12.6511 19.3064C12.6549 19.3064 12.6586 19.3064 12.6624 19.3064C12.6661 19.3064 12.6699 19.3064 12.6736 19.3064C12.6773 19.3064 12.6811 19.3064 12.6848 19.3064C12.6885 19.3064 12.6922 19.3064 12.6959 19.3064C12.6996 19.3064 12.7033 19.3064 12.7069 19.3064C12.7106 19.3064 12.7143 19.3064 12.7179 19.3064C12.7216 19.3064 12.7252 19.3064 12.7289 19.3064C12.7325 19.3064 12.7362 19.3064 12.7398 19.3064C12.7434 19.3064 12.747 19.3064 12.7506 19.3064C12.7542 19.3064 12.7578 19.3064 12.7614 19.3064C12.765 19.3064 12.7685 19.3064 12.7721 19.3064C12.7757 19.3064 12.7792 19.3064 12.7828 19.3064C12.7863 19.3064 12.7898 19.3064 12.7934 19.3064C12.7969 19.3064 12.8004 19.3064 12.8039 19.3064C12.8074 19.3064 12.8109 19.3064 12.8144 19.3064C12.8179 19.3064 12.8213 19.3064 12.8248 19.3064C12.8283 19.3064 12.8317 19.3064 12.8352 19.3064C12.8386 19.3064 12.8421 19.3064 12.8455 19.3064C12.8489 19.3064 12.8523 19.3064 12.8557 19.3064C12.8591 19.3064 12.8625 19.3064 12.8659 19.3064C12.8693 19.3064 12.8727 19.3064 12.876 19.3064C12.8794 19.3064 12.8827 19.3064 12.8861 19.3064C12.8894 19.3064 12.8928 19.3064 12.8961 19.3064C12.8994 19.3064 12.9027 19.3064 12.906 19.3064C12.9093 19.3064 12.9126 19.3064 12.9159 19.3064C12.9192 19.3064 12.9224 19.3064 12.9257 19.3064C12.9289 19.3064 12.9322 19.3064 12.9354 19.3064C12.9387 19.3064 12.9419 19.3064 12.9451 19.3064C12.9483 19.3064 12.9515 19.3064 12.9547 19.3064C12.9579 19.3064 12.9611 19.3064 12.9643 19.3064C12.9674 19.3064 12.9706 19.3064 12.9737 19.3064C12.9769 19.3064 12.98 19.3064 12.9832 19.3064C12.9863 19.3064 12.9894 19.3064 12.9925 19.3064C12.9956 19.3064 12.9987 19.3064 13.0018 19.3064C13.0049 19.3064 13.0079 19.3064 13.011 19.3064C13.014 19.3064 13.0171 19.3064 13.0201 19.3064C13.0232 19.3064 13.0262 19.3064 13.0292 19.3064C13.0322 19.3064 13.0352 19.3064 13.0382 19.3064C13.0412 19.3064 13.0442 19.3064 13.0472 19.3064C13.0501 19.3064 13.0531 19.3064 13.056 19.3064C13.059 19.3064 13.0619 19.3064 13.0648 19.3064C13.0677 19.3064 13.0706 19.3064 13.0735 19.3064C13.0764 19.3064 13.0793 19.3064 13.0822 19.3064C13.0851 19.3064 13.0879 19.3064 13.0908 19.3064C13.0936 19.3064 13.0965 19.3064 13.0993 19.3064C13.1021 19.3064 13.1049 19.3064 13.1077 19.3064C13.1105 19.3064 13.1133 19.3064 13.1161 19.3064C13.1189 19.3064 13.1216 19.3064 13.1244 19.3064C13.1271 19.3064 13.1299 19.3064 13.1326 19.3064C13.1353 19.3064 13.1381 19.3064 13.1408 19.3064C13.1435 19.3064 13.1461 19.3064 13.1488 19.3064C13.1515 19.3064 13.1542 19.3064 13.1568 19.3064C13.1595 19.3064 13.1621 19.3064 13.1647 19.3064C13.1674 19.3064 13.17 19.3064 13.1726 19.3064C13.1752 19.3064 13.1778 19.3064 13.1804 19.3064C13.1829 19.3064 13.1855 19.3064 13.188 19.3064C13.1906 19.3064 13.1931 19.3064 13.1957 19.3064C13.1982 19.3064 13.2007 19.3064 13.2032 19.3064C13.2057 19.3064 13.2082 19.3064 13.2107 19.3064C13.2131 19.3064 13.2156 19.3064 13.218 19.3064C13.2205 19.3064 13.2229 19.3064 13.2253 19.3064C13.2278 19.3064 13.2302 19.3064 13.2326 19.3064C13.235 19.3064 13.2373 19.3064 13.2397 19.3064C13.2421 19.3064 13.2444 19.3064 13.2468 19.3064C13.2491 19.3064 13.2514 19.3064 13.2537 19.3064C13.2561 19.3064 13.2584 19.3064 13.2606 19.3064C13.2629 19.3064 13.2652 19.3064 13.2675 19.3064C13.2697 19.3064 13.272 19.3064 13.2742 19.3064C13.2764 19.3064 13.2787 19.3064 13.2809 19.3064C13.2831 19.3064 13.2853 19.3064 13.2874 19.3064C13.2896 19.3064 13.2918 19.3064 13.2939 19.3064C13.2961 19.3064 13.2982 19.3064 13.3003 19.3064C13.3025 19.3064 13.3046 19.3064 13.3067 19.3064C13.3087 19.3064 13.3108 19.3064 13.3129 19.3064C13.315 19.3064 13.317 19.3064 13.319 19.3064C13.3211 19.3064 13.3231 19.3064 13.3251 19.3064C13.3271 19.3064 13.3291 19.3064 13.3311 19.3064C13.3331 19.3064 13.335 19.3064 13.337 19.3064C13.3389 19.3064 13.3409 19.3064 13.3428 19.3064C13.3447 19.3064 13.3466 19.3064 13.3485 19.3064C13.3504 19.3064 13.3523 19.3064 13.3542 19.3064C13.356 19.3064 13.3579 19.3064 13.3597 19.3064C13.3615 19.3064 13.3634 19.3064 13.3652 19.3064C13.367 19.3064 13.3688 19.3064 13.3705 19.3064C13.3723 19.3064 13.3741 19.3064 13.3758 19.3064C13.3776 19.3064 13.3793 19.3064 13.381 19.3064C13.3827 19.3064 13.3844 19.3064 13.3861 19.3064C13.3878 19.3064 13.3895 19.3064 13.3911 19.3064C13.3928 19.3064 13.3944 19.3064 13.396 19.3064C13.3977 19.3064 13.3993 19.3064 13.4009 19.3064C13.4025 19.3064 13.404 19.3064 13.4056 19.3064C13.4072 19.3064 13.4087 19.3064 13.4103 19.3064C13.4118 19.3064 13.4133 19.3064 13.4148 19.3064C13.4163 19.3064 13.4178 19.3064 13.4193 19.3064C13.4207 19.3064 13.4222 19.3064 13.4236 19.3064C13.4251 19.3064 13.4265 19.3064 13.4279 19.3064C13.4293 19.3064 13.4307 19.3064 13.4321 19.3064C13.4335 19.3064 13.4348 19.3064 13.4362 19.3064C13.4375 19.3064 13.4388 19.3064 13.4402 19.3064C13.4415 19.3064 13.4428 19.3064 13.4441 19.3064C13.4453 19.3064 13.4466 19.3064 13.4479 19.3064C13.4491 19.3064 13.4503 19.3064 13.4516 19.3064C13.4528 19.3064 13.454 19.3064 13.4552 19.3064C13.4563 19.3064 13.4575 19.3064 13.4587 19.3064C13.4598 19.3064 13.461 19.3064 13.4621 19.3064C13.4632 19.3064 13.4643 19.3064 13.4654 19.3064C13.4665 19.3064 13.4675 19.3064 13.4686 19.3064C13.4696 19.3064 13.4707 19.3064 13.4717 19.3064C13.4727 19.3064 13.4737 19.3064 13.4747 19.3064C13.4757 19.3064 13.4767 19.3064 13.4776 19.3064C13.4786 19.3064 13.4795 19.3064 13.4804 19.3064C13.4814 19.3064 13.4823 19.3064 13.4832 19.3064C13.484 19.3064 13.4849 19.3064 13.4858 19.3064C13.4866 19.3064 13.4875 19.3064 13.4883 19.3064C13.4891 19.3064 13.4899 19.3064 13.4907 19.3064C13.4915 19.3064 13.4922 19.3064 13.493 19.3064C13.4937 19.3064 13.4945 19.3064 13.4952 19.3064C13.4959 19.3064 13.4966 19.3064 13.4973 19.3064C13.498 19.3064 13.4986 19.3064 13.4993 19.3064C13.4999 19.3064 13.5006 19.3064 13.5012 19.3064C13.5018 19.3064 13.5024 19.3064 13.503 19.3064C13.5036 19.3064 13.5041 19.3064 13.5047 19.3064C13.5052 19.3064 13.5057 19.3064 13.5062 19.3064C13.5067 19.3064 13.5072 19.3064 13.5077 19.3064C13.5082 19.3064 13.5086 19.3064 13.5091 19.3064C13.5095 19.3064 13.5099 19.3064 13.5103 19.3064C13.5107 19.3064 13.5111 19.3064 13.5115 19.3064C13.5118 19.3064 13.5122 19.3064 13.5125 19.3064C13.5129 19.3064 13.5132 19.3064 13.5135 19.3064C13.5138 19.3064 13.514 19.3064 13.5143 19.3064C13.5145 19.3064 13.5148 19.3064 13.515 19.3064C13.5152 19.3064 13.5154 19.3064 13.5156 19.3064C13.5158 19.3064 13.516 19.3064 13.5161 19.3064C13.5163 19.3064 13.5164 19.3064 13.5165 19.3064C13.5166 19.3064 13.5167 19.3064 13.5168 19.3064C13.5169 19.3064 13.5169 19.3064 13.5169 19.3064C13.517 19.3064 13.517 19.3064 13.517 18.3064ZM13.517 18.3064L12.5189 18.244C12.4601 19.1855 12.2988 19.5631 12.1533 19.7272C12.0538 19.8394 11.8175 20.0096 11.0186 20.0002L11.0068 21.0001L10.995 22C12.0231 22.0122 12.9812 21.808 13.6496 21.0542C14.2721 20.3523 14.4524 19.3722 14.5151 18.3687L13.517 18.3064ZM11.0068 21.0001L10.9883 20.0003C10.1632 20.0155 9.92649 19.8205 9.82527 19.6976C9.66307 19.5007 9.52384 19.1009 9.44993 18.2225L8.45345 18.3064L7.45697 18.3902C7.53264 19.2896 7.69299 20.2547 8.28151 20.9692C8.93103 21.7577 9.89618 22.0208 11.0253 21.9999L11.0068 21.0001Z" fill="var(--stroke-0, #0051FF)"/>
</svg>
