<svg preserveAspectRatio="none" width="100%" height="100%" overflow="visible" style="display: block;" viewBox="0 0 14.5333 14.5333" fill="none" xmlns="http://www.w3.org/2000/svg">
<g id="Vector">
<path d="M9.26667 0.6L9.6258 2.19438C9.93047 3.54677 10.9865 4.60287 12.3389 4.90751L13.9333 5.26667L12.3389 5.62582C10.9865 5.93046 9.93047 6.98653 9.6258 8.33893L9.26667 9.93333L8.90753 8.33893C8.60287 6.98653 7.5468 5.93046 6.1944 5.62582L4.6 5.26667L6.1944 4.90751C7.54673 4.60287 8.60287 3.54677 8.90753 2.19439L9.26667 0.6Z" stroke="var(--stroke-0, #F9FAFB)" stroke-width="1.2" stroke-linejoin="round"/>
<path d="M3.93333 7.26667L4.18987 8.40553C4.40747 9.37147 5.16183 10.1259 6.1278 10.3435L7.26667 10.6L6.1278 10.8565C5.16183 11.0741 4.40747 11.8285 4.18987 12.7945L3.93333 13.9333L3.67679 12.7945C3.45919 11.8285 2.70483 11.0741 1.73885 10.8565L0.6 10.6L1.73885 10.3435C2.70483 10.1259 3.45919 9.37153 3.67679 8.40553L3.93333 7.26667Z" stroke="var(--stroke-0, #F9FAFB)" stroke-width="1.2" stroke-linejoin="round"/>
</g>
</svg>
