<svg preserveAspectRatio="none" width="100%" height="100%" overflow="visible" style="display: block;" viewBox="0 0 10.1224 3.361" fill="none" xmlns="http://www.w3.org/2000/svg">
<path id="Vector" d="M1.55266 3.361C1.07777 3.25975 0.812648 3.18182 0.450691 2.81979C0.175863 2.54491 -0.00991459 2.02972 0.000409631 1.64405C0.0180464 1.21788 0.196242 0.778969 0.499723 0.480562C1.06545 -0.0757149 1.60571 -0.000117162 2.3364 0.00762893L4.05982 0.0356834L7.07763 0.0874336C7.81404 0.0977578 8.53158 0.0986366 9.27056 0.120762C9.44459 0.129246 9.61931 0.13309 9.79345 0.139289C9.99466 0.146461 10.0788 0.211406 10.1224 0.400406C10.0115 0.681 9.61392 0.6675 9.39982 0.800508C9.13931 0.859242 8.93365 0.948058 8.6831 1.03324L7.18802 1.55276L3.24185 2.9109C2.87988 3.03337 2.53807 3.19494 2.16439 3.28295C2.05975 3.30756 1.93628 3.32971 1.83533 3.361H1.55266ZM1.82435 2.32949C2.1859 2.26232 2.42498 1.91535 2.35901 1.55358C2.29303 1.19182 1.94686 0.951586 1.58488 1.01637C1.2212 1.08145 0.979606 1.42961 1.04589 1.79306C1.11217 2.15651 1.46112 2.39697 1.82435 2.32949Z" fill="var(--fill-0, black)"/>
</svg>
