<svg preserveAspectRatio="none" width="100%" height="100%" overflow="visible" style="display: block;" viewBox="0 0 3.08579 3.16128" fill="none" xmlns="http://www.w3.org/2000/svg">
<path id="Vector" d="M0.682211 0.000173632C0.800571 -0.00895176 1.57987 0.344339 1.73315 0.417658C2.09678 0.587557 2.44928 0.776006 2.78444 0.995932C3.21897 1.28107 3.12018 1.25604 2.8844 1.61563C2.61592 2.0251 2.28979 2.39582 2.026 2.80218C1.95405 2.89532 1.83463 3.07292 1.756 3.1441C1.65627 3.23437 1.31725 2.94239 1.20569 2.88564C0.97436 2.76808 0.742914 2.65725 0.513226 2.53772C0.367328 2.46171 0.241704 2.42032 0.0881886 2.36428C-0.033452 2.31874 -0.00345274 2.17882 0.0273676 2.07052C0.220961 1.39288 0.506664 0.679667 0.682211 0.000173632Z" fill="var(--fill-0, #F5A31F)"/>
</svg>
