<svg preserveAspectRatio="none" width="100%" height="100%" overflow="visible" style="display: block;" viewBox="0 0 2.69999 2.71678" fill="none" xmlns="http://www.w3.org/2000/svg">
<path id="Vector" d="M2.52771 0.00131269C2.57641 -3.14493e-05 2.63185 -0.00619316 2.6679 0.0273541C2.68627 0.0753576 2.69348 0.146163 2.69392 0.196667C2.69607 0.44394 2.69961 0.814709 2.6923 1.05081C2.68492 1.28895 2.72366 2.25386 2.67501 2.41966C2.63403 2.46071 2.55579 2.45456 2.50171 2.45767C1.93905 2.49016 1.39586 2.5729 0.850968 2.71285C0.685664 2.75531 0.62482 2.44204 0.607031 2.32041C0.537035 2.21431 0.471668 1.93894 0.433336 1.8074C0.404613 1.70881 0.359297 1.64296 0.331066 1.55362C0.305508 1.47272 0.291527 1.36129 0.263566 1.27456C0.21164 1.11355 0.155156 0.954578 0.102398 0.793848C0.0680622 0.689274 0.0527344 0.582661 0 0.486105L0.0762885 0.392548C0.195995 0.357846 0.331336 0.310043 0.449015 0.280125C1.12956 0.111063 1.82667 0.0175619 2.52771 0.00131269Z" fill="var(--fill-0, #E1D821)"/>
</svg>
