<svg preserveAspectRatio="none" width="100%" height="100%" overflow="visible" style="display: block;" viewBox="0 0 2.71767 2.69217" fill="none" xmlns="http://www.w3.org/2000/svg">
<path id="Vector" d="M0.43069 0C0.508657 0.00496875 0.658816 0.0551367 0.737214 0.0767226C1.06174 0.16118 1.37254 0.291176 1.69063 0.392719C1.94936 0.475313 2.21312 0.537422 2.46733 0.640043C2.53663 0.668016 2.6446 0.700933 2.71767 0.713027C2.7063 0.892347 2.62313 1.11278 2.58633 1.29551C2.49608 1.7438 2.41678 2.21634 2.41413 2.6738C2.37851 2.67906 2.3394 2.68243 2.30334 2.68621L0.840772 2.68636C0.585887 2.68684 0.255498 2.70107 0.00907141 2.68315C0.00263782 2.64178 -0.00157155 2.57692 0.000557747 2.5339C0.0243761 2.26823 0.0110413 1.97285 0.0496171 1.71091C0.0850851 1.47008 0.132538 1.217 0.169564 0.975175C0.216683 0.740238 0.281373 0.51 0.32921 0.274969C0.347616 0.184535 0.363261 0.0645703 0.43069 0Z" fill="var(--fill-0, #0D8140)"/>
</svg>
