<svg preserveAspectRatio="none" width="100%" height="100%" overflow="visible" style="display: block;" viewBox="0 0 3.12587 3.15857" fill="none" xmlns="http://www.w3.org/2000/svg">
<path id="Vector" d="M2.36025 0C2.47353 0.0356965 2.53966 0.348462 2.57515 0.461902L2.76354 1.0571C2.85149 1.32685 2.93472 1.59592 3.03668 1.86085C3.07991 1.9732 3.15476 2.17618 3.1142 2.29246C3.04582 2.34023 2.7992 2.41822 2.69257 2.46929C2.37704 2.62041 2.06008 2.76614 1.76132 2.95021C1.7061 2.98423 1.44473 3.16186 1.39766 3.15853C1.33468 3.15407 1.14984 2.87936 1.10555 2.81853C0.938195 2.58152 0.765156 2.33702 0.594086 2.10264C0.406949 1.84625 0.1613 1.55279 0.000120781 1.27864C-0.000828438 1.24503 0.00355423 1.22831 0.0226792 1.20018C0.167734 0.986948 1.3993 0.363517 1.68666 0.235929C1.89277 0.144409 2.13909 0.0402281 2.36025 0Z" fill="var(--fill-0, #8EBC41)"/>
</svg>
