<svg preserveAspectRatio="none" width="100%" height="100%" overflow="visible" style="display: block;" viewBox="0 0 2.67001 2.69313" fill="none" xmlns="http://www.w3.org/2000/svg">
<path id="Vector" d="M0.0283116 0C0.193077 0.0192129 0.435608 0.00319922 0.616241 0.0162867C1.02416 0.0453211 1.42771 0.108879 1.82708 0.195609C1.98857 0.230679 2.61376 0.331445 2.67001 0.481414C2.65232 0.582313 2.60064 0.699724 2.57251 0.80063C2.49622 1.07519 2.41349 1.34072 2.31857 1.60948C2.2547 1.79045 2.2165 2.0104 2.1272 2.18222C2.08021 2.31575 2.06017 2.57852 1.95083 2.67035C1.87138 2.73702 1.5163 2.63814 1.41189 2.61785C1.22872 2.58232 1.05186 2.54611 0.868616 2.51735C0.629858 2.47989 0.39505 2.47942 0.155495 2.45776C0.127488 2.45517 0.0436749 2.43926 0.0320617 2.41513C0.0160656 2.38193 0.00206153 2.27665 0.00234278 2.24038C0.0046631 1.93925 0.000736978 1.54501 0.00507292 1.25578C0.00809635 1.05436 -0.0191376 0.155285 0.0283116 0Z" fill="var(--fill-0, #E1D821)"/>
</svg>
