<svg preserveAspectRatio="none" width="100%" height="100%" overflow="visible" style="display: block;" viewBox="0 0 3.13386 3.12809" fill="none" xmlns="http://www.w3.org/2000/svg">
<path id="Vector" d="M1.89879 0C2.02781 0.00225 2.59711 1.05414 2.67023 1.20722C2.83734 1.55698 3.02789 1.92675 3.12938 2.30345C3.13781 2.33488 3.13219 2.41028 3.12984 2.44573C2.71453 2.52301 2.27578 2.70909 1.86949 2.83704C1.65961 2.90314 1.38656 2.96577 1.18969 3.0478C1.10309 3.08167 0.998203 3.13219 0.906914 3.12783C0.839766 3.10291 0.74039 2.83976 0.711679 2.76499C0.523945 2.2761 0.248438 1.86428 0 1.40972C0.00832031 1.39491 0.0172264 1.38054 0.0262499 1.36612C0.0979686 1.25162 1.14797 0.533813 1.35 0.388289C1.44996 0.316301 1.54348 0.236015 1.64461 0.165433C1.72734 0.107636 1.81535 0.0571875 1.89879 0Z" fill="var(--fill-0, #DC3227)"/>
</svg>
