<svg preserveAspectRatio="none" width="100%" height="100%" overflow="visible" style="display: block;" viewBox="0 0 3.1248 3.16542" fill="none" xmlns="http://www.w3.org/2000/svg">
<path id="Vector" d="M1.20481 0C1.30216 0.0284063 3.04773 1.31521 3.12037 1.40005C3.12428 1.41478 3.12581 1.42562 3.12411 1.44091C3.11423 1.53007 2.74216 2.12761 2.67162 2.26457C2.57879 2.44662 2.49465 2.63298 2.4195 2.82302C2.38953 2.89757 2.31522 3.12875 2.26909 3.16282C2.17707 3.17589 2.09551 3.13696 2.00787 3.10549C1.74655 3.01502 1.48771 2.93989 1.2241 2.85793C0.923222 2.76439 0.629679 2.64534 0.324109 2.56511C0.22678 2.53955 0.105809 2.50734 0.0163663 2.46633C-0.0405083 2.3704 0.0659424 2.13035 0.106069 2.02971C0.378105 1.34747 0.756862 0.581602 1.20481 0Z" fill="var(--fill-0, #0D8140)"/>
</svg>
