<svg preserveAspectRatio="none" width="100%" height="100%" overflow="visible" style="display: block;" viewBox="0 0 3.30548 3.28414" fill="none" xmlns="http://www.w3.org/2000/svg">
<path id="Vector" d="M1.84389 9.01854e-05C1.89342 -0.00143325 1.94963 0.0162972 1.98045 0.0568441C2.06642 0.169965 2.14647 0.28768 2.22885 0.403473L2.71037 1.07788L3.07993 1.58513C3.17173 1.71156 3.23719 1.77959 3.30548 1.92229C3.18437 2.07691 2.92634 2.25572 2.78406 2.39407C2.56924 2.6092 2.32631 2.83052 2.14394 3.07382C1.95312 3.3284 1.89329 3.3549 1.63975 3.13671C1.20044 2.79996 0.717979 2.49392 0.278947 2.15318C0.200865 2.09257 0.0635214 2.00899 0.00510338 1.93752C0.0006151 1.91968 -0.00193948 1.90276 0.00181052 1.88462C0.0483457 1.65982 0.924686 0.776036 1.13415 0.583274C1.21656 0.50743 1.30992 0.445028 1.39538 0.372887C1.54442 0.247098 1.68059 0.108313 1.84389 9.01854e-05Z" fill="var(--fill-0, #42A749)"/>
</svg>
