<svg preserveAspectRatio="none" width="100%" height="100%" overflow="visible" style="display: block;" viewBox="0 0 3.29442 3.28431" fill="none" xmlns="http://www.w3.org/2000/svg">
<path id="Vector" d="M1.42559 0C1.5266 0.0249141 1.63641 0.153996 1.71492 0.221285C2.19504 0.632836 2.65629 1.06004 3.05801 1.55057C3.12035 1.62672 3.30773 1.81845 3.29367 1.91443C3.28336 1.98488 1.87137 2.97203 1.70016 3.09912C1.62867 3.14518 1.48113 3.30191 1.39594 3.28268C1.23422 3.24156 1.16273 3.05913 1.06219 2.95127C0.827227 2.69921 0.596602 2.45452 0.33293 2.23189C0.240938 2.15422 0.0617578 2.01002 0 1.91508C0.0890625 1.73435 0.148594 1.6894 0.259219 1.53373L0.759843 0.840187C0.898828 0.64943 1.24102 0.10043 1.42559 0Z" fill="var(--fill-0, #F26823)"/>
</svg>
